ISO-10303-21;
HEADER;
/* QFN-28-1EP_4x5mm_P0.5mm_EP2.65x3.65mm.step 3D STEP model for use in ECAD systems
 * Copyright (C) 2026, KiCAD
 *
 * This work is licensed under the
 * [Creative Commons CC-BY-SA 4.0 License](https://creativecommons.org/licenses/by-sa/4.0/legalcode),
 * with the following exception:
 *
 * To the extent that the creation of electronic designs that use 'Licensed Material' can be
 * considered to be 'Adapted Material', then the copyright holder waives article 3 of the license
 * with respect to these designs and any generated files which use data provided as part of the
 * 'Licensed Material'.
 *
 * You are free to use the library data in your own projects without the obligation to share your
 * project files under this or any other license agreement. However, if you wish to distribute
 * these libraries, or parts thereof (including in modified form) as a collection then the exception
 * above does not apply. Please refer to
 * https://gitlab.com/kicad/libraries/kicad-packages3D/-/blob/master/LICENSE.md for further clarification
 * of the exception.
 *
 * Disclaimer of Warranties and Limitation of Liability.
 * These libraries are provided in the hope that they will be useful, but are provided without warranty of any kind, express or implied.
 * USE 3D CAD DATA AT YOUR OWN RISK
 * DO NOT RELY UPON ANY INFORMATION FOUND HERE WITHOUT INDEPENDENT VERIFICATION.
 */

FILE_DESCRIPTION(
/* description */ ('model of QFN-28-1EP_4x5mm_P0.5mm_EP2.65x3.65mm'),
/* implementation_level */ '2;1');

FILE_NAME(
/* name */ 'QFN-28-1EP_4x5mm_P0.5mm_EP2.65x3.65mm.step',
/* time_stamp */ '1970-01-01T00:00:00',
/* author */ ('KiCAD','kicad'),
/* organization */ ('OCCT'),
/* preprocessor_version */ '',
/* originating_system */ 'KiCAD',
/* authorisation */ '');

FILE_SCHEMA(('AUTOMOTIVE_DESIGN { 1 0 10303 214 1 1 1 1 }'));
ENDSEC;

DATA;
#1=APPLICATION_PROTOCOL_DEFINITION('international standard','automotive_design',2000,#2);
#2=APPLICATION_CONTEXT('core data for automotive mechanical design processes');
#3=SHAPE_DEFINITION_REPRESENTATION(#4,#10);
#4=PRODUCT_DEFINITION_SHAPE('','',#5);
#5=PRODUCT_DEFINITION('design','',#6,#9);
#6=PRODUCT_DEFINITION_FORMATION('','',#7);
#7=PRODUCT('QFN-28-1EP_4x5mm_P0.5mm_EP2.65x3.65mm','QFN-28-1EP_4x5mm_P0.5mm_EP2.65x3.65mm','',(#8));
#8=PRODUCT_CONTEXT('',#2,'mechanical');
#9=PRODUCT_DEFINITION_CONTEXT('part definition',#2,'design');
#10=ADVANCED_BREP_SHAPE_REPRESENTATION('',(#11,#15),#1701);
#11=AXIS2_PLACEMENT_3D('',#12,#13,#14);
#12=CARTESIAN_POINT('',(0.,0.,0.));
#13=DIRECTION('',(0.,0.,1.));
#14=DIRECTION('',(1.,0.,-0.));
#15=MANIFOLD_SOLID_BREP('',#16);
#16=CLOSED_SHELL('',(#17,#200,#228,#358,#927,#939,#950,#961,#972,#983,#994,#1005,#1016,#1111,#1223,#1229,#1237,#1245,#1253,#1261,#1269,#1277,#1288,#1301,#1311,#1323,#1333,#1345,#1355,#1367,#1377,#1389,#1399,#1411,#1421,#1434,#1444,#1456,#1466,#1478,#1488,#1500,#1510,#1522,#1532,#1544,#1554,#1566,#1576,#1588,#1597,#1607,#1616,#1625,#1634,#1643,#1652,#1659,#1665,#1671,#1677,#1683,#1689,#1695));
#17=ADVANCED_FACE('',(#18),#197,.F.);
#18=FACE_BOUND('',#19,.F.);
#19=EDGE_LOOP('',(#20,#29,#35,#40,#45,#52,#57,#61,#66,#71,#76,#80,#85,#90,#95,#99,#104,#109,#114,#118,#123,#128,#133,#137,#142,#147,#152,#156,#161,#166,#171,#175,#180,#185,#190,#194));
#20=ORIENTED_EDGE('',*,*,#21,.F.);
#21=EDGE_CURVE('',#22,#24,#26,.T.);
#22=VERTEX_POINT('',#23);
#23=CARTESIAN_POINT('',(-2.,-2.5,0.8));
#24=VERTEX_POINT('',#25);
#25=CARTESIAN_POINT('',(-2.,2.5,0.8));
#26=LINE('',#23,#27);
#27=VECTOR('',#28,1.);
#28=DIRECTION('',(0.,1.,0.));
#29=ORIENTED_EDGE('',*,*,#30,.F.);
#30=EDGE_CURVE('',#31,#22,#33,.T.);
#31=VERTEX_POINT('',#32);
#32=CARTESIAN_POINT('',(-2.,-2.5,0.));
#33=LINE('',#32,#34);
#34=VECTOR('',#13,1.);
#35=ORIENTED_EDGE('',*,*,#36,.T.);
#36=EDGE_CURVE('',#31,#37,#39,.T.);
#37=VERTEX_POINT('',#38);
#38=CARTESIAN_POINT('',(-2.,-1.875,0.));
#39=LINE('',#32,#27);
#40=ORIENTED_EDGE('',*,*,#41,.T.);
#41=EDGE_CURVE('',#37,#42,#44,.T.);
#42=VERTEX_POINT('',#43);
#43=CARTESIAN_POINT('',(-2.,-1.875,0.15));
#44=LINE('',#38,#34);
#45=ORIENTED_EDGE('',*,*,#46,.F.);
#46=EDGE_CURVE('',#47,#42,#49,.T.);
#47=VERTEX_POINT('',#48);
#48=CARTESIAN_POINT('',(-2.,-1.625,0.15));
#49=LINE('',#48,#50);
#50=VECTOR('',#51,1.);
#51=DIRECTION('',(-1.110223024625E-16,-1.,0.));
#52=ORIENTED_EDGE('',*,*,#53,.F.);
#53=EDGE_CURVE('',#54,#47,#56,.T.);
#54=VERTEX_POINT('',#55);
#55=CARTESIAN_POINT('',(-2.,-1.625,0.));
#56=LINE('',#55,#34);
#57=ORIENTED_EDGE('',*,*,#58,.T.);
#58=EDGE_CURVE('',#54,#59,#39,.T.);
#59=VERTEX_POINT('',#60);
#60=CARTESIAN_POINT('',(-2.,-1.375,0.));
#61=ORIENTED_EDGE('',*,*,#62,.T.);
#62=EDGE_CURVE('',#59,#63,#65,.T.);
#63=VERTEX_POINT('',#64);
#64=CARTESIAN_POINT('',(-2.,-1.375,0.15));
#65=LINE('',#60,#34);
#66=ORIENTED_EDGE('',*,*,#67,.F.);
#67=EDGE_CURVE('',#68,#63,#70,.T.);
#68=VERTEX_POINT('',#69);
#69=CARTESIAN_POINT('',(-2.,-1.125,0.15));
#70=LINE('',#69,#50);
#71=ORIENTED_EDGE('',*,*,#72,.F.);
#72=EDGE_CURVE('',#73,#68,#75,.T.);
#73=VERTEX_POINT('',#74);
#74=CARTESIAN_POINT('',(-2.,-1.125,0.));
#75=LINE('',#74,#34);
#76=ORIENTED_EDGE('',*,*,#77,.T.);
#77=EDGE_CURVE('',#73,#78,#39,.T.);
#78=VERTEX_POINT('',#79);
#79=CARTESIAN_POINT('',(-2.,-0.875,0.));
#80=ORIENTED_EDGE('',*,*,#81,.T.);
#81=EDGE_CURVE('',#78,#82,#84,.T.);
#82=VERTEX_POINT('',#83);
#83=CARTESIAN_POINT('',(-2.,-0.875,0.15));
#84=LINE('',#79,#34);
#85=ORIENTED_EDGE('',*,*,#86,.F.);
#86=EDGE_CURVE('',#87,#82,#89,.T.);
#87=VERTEX_POINT('',#88);
#88=CARTESIAN_POINT('',(-2.,-0.625,0.15));
#89=LINE('',#88,#50);
#90=ORIENTED_EDGE('',*,*,#91,.F.);
#91=EDGE_CURVE('',#92,#87,#94,.T.);
#92=VERTEX_POINT('',#93);
#93=CARTESIAN_POINT('',(-2.,-0.625,0.));
#94=LINE('',#93,#34);
#95=ORIENTED_EDGE('',*,*,#96,.T.);
#96=EDGE_CURVE('',#92,#97,#39,.T.);
#97=VERTEX_POINT('',#98);
#98=CARTESIAN_POINT('',(-2.,-0.375,0.));
#99=ORIENTED_EDGE('',*,*,#100,.T.);
#100=EDGE_CURVE('',#97,#101,#103,.T.);
#101=VERTEX_POINT('',#102);
#102=CARTESIAN_POINT('',(-2.,-0.375,0.15));
#103=LINE('',#98,#34);
#104=ORIENTED_EDGE('',*,*,#105,.F.);
#105=EDGE_CURVE('',#106,#101,#108,.T.);
#106=VERTEX_POINT('',#107);
#107=CARTESIAN_POINT('',(-2.,-0.125,0.15));
#108=LINE('',#107,#50);
#109=ORIENTED_EDGE('',*,*,#110,.F.);
#110=EDGE_CURVE('',#111,#106,#113,.T.);
#111=VERTEX_POINT('',#112);
#112=CARTESIAN_POINT('',(-2.,-0.125,0.));
#113=LINE('',#112,#34);
#114=ORIENTED_EDGE('',*,*,#115,.T.);
#115=EDGE_CURVE('',#111,#116,#39,.T.);
#116=VERTEX_POINT('',#117);
#117=CARTESIAN_POINT('',(-2.,0.125,0.));
#118=ORIENTED_EDGE('',*,*,#119,.T.);
#119=EDGE_CURVE('',#116,#120,#122,.T.);
#120=VERTEX_POINT('',#121);
#121=CARTESIAN_POINT('',(-2.,0.125,0.15));
#122=LINE('',#117,#34);
#123=ORIENTED_EDGE('',*,*,#124,.F.);
#124=EDGE_CURVE('',#125,#120,#127,.T.);
#125=VERTEX_POINT('',#126);
#126=CARTESIAN_POINT('',(-2.,0.375,0.15));
#127=LINE('',#126,#50);
#128=ORIENTED_EDGE('',*,*,#129,.F.);
#129=EDGE_CURVE('',#130,#125,#132,.T.);
#130=VERTEX_POINT('',#131);
#131=CARTESIAN_POINT('',(-2.,0.375,0.));
#132=LINE('',#131,#34);
#133=ORIENTED_EDGE('',*,*,#134,.T.);
#134=EDGE_CURVE('',#130,#135,#39,.T.);
#135=VERTEX_POINT('',#136);
#136=CARTESIAN_POINT('',(-2.,0.625,0.));
#137=ORIENTED_EDGE('',*,*,#138,.T.);
#138=EDGE_CURVE('',#135,#139,#141,.T.);
#139=VERTEX_POINT('',#140);
#140=CARTESIAN_POINT('',(-2.,0.625,0.15));
#141=LINE('',#136,#34);
#142=ORIENTED_EDGE('',*,*,#143,.F.);
#143=EDGE_CURVE('',#144,#139,#146,.T.);
#144=VERTEX_POINT('',#145);
#145=CARTESIAN_POINT('',(-2.,0.875,0.15));
#146=LINE('',#145,#50);
#147=ORIENTED_EDGE('',*,*,#148,.F.);
#148=EDGE_CURVE('',#149,#144,#151,.T.);
#149=VERTEX_POINT('',#150);
#150=CARTESIAN_POINT('',(-2.,0.875,0.));
#151=LINE('',#150,#34);
#152=ORIENTED_EDGE('',*,*,#153,.T.);
#153=EDGE_CURVE('',#149,#154,#39,.T.);
#154=VERTEX_POINT('',#155);
#155=CARTESIAN_POINT('',(-2.,1.125,0.));
#156=ORIENTED_EDGE('',*,*,#157,.T.);
#157=EDGE_CURVE('',#154,#158,#160,.T.);
#158=VERTEX_POINT('',#159);
#159=CARTESIAN_POINT('',(-2.,1.125,0.15));
#160=LINE('',#155,#34);
#161=ORIENTED_EDGE('',*,*,#162,.F.);
#162=EDGE_CURVE('',#163,#158,#165,.T.);
#163=VERTEX_POINT('',#164);
#164=CARTESIAN_POINT('',(-2.,1.375,0.15));
#165=LINE('',#164,#50);
#166=ORIENTED_EDGE('',*,*,#167,.F.);
#167=EDGE_CURVE('',#168,#163,#170,.T.);
#168=VERTEX_POINT('',#169);
#169=CARTESIAN_POINT('',(-2.,1.375,0.));
#170=LINE('',#169,#34);
#171=ORIENTED_EDGE('',*,*,#172,.T.);
#172=EDGE_CURVE('',#168,#173,#39,.T.);
#173=VERTEX_POINT('',#174);
#174=CARTESIAN_POINT('',(-2.,1.625,0.));
#175=ORIENTED_EDGE('',*,*,#176,.T.);
#176=EDGE_CURVE('',#173,#177,#179,.T.);
#177=VERTEX_POINT('',#178);
#178=CARTESIAN_POINT('',(-2.,1.625,0.15));
#179=LINE('',#174,#34);
#180=ORIENTED_EDGE('',*,*,#181,.F.);
#181=EDGE_CURVE('',#182,#177,#184,.T.);
#182=VERTEX_POINT('',#183);
#183=CARTESIAN_POINT('',(-2.,1.875,0.15));
#184=LINE('',#183,#50);
#185=ORIENTED_EDGE('',*,*,#186,.F.);
#186=EDGE_CURVE('',#187,#182,#189,.T.);
#187=VERTEX_POINT('',#188);
#188=CARTESIAN_POINT('',(-2.,1.875,0.));
#189=LINE('',#188,#34);
#190=ORIENTED_EDGE('',*,*,#191,.T.);
#191=EDGE_CURVE('',#187,#192,#39,.T.);
#192=VERTEX_POINT('',#193);
#193=CARTESIAN_POINT('',(-2.,2.5,0.));
#194=ORIENTED_EDGE('',*,*,#195,.T.);
#195=EDGE_CURVE('',#192,#24,#196,.T.);
#196=LINE('',#193,#34);
#197=PLANE('',#198);
#198=AXIS2_PLACEMENT_3D('',#32,#199,#13);
#199=DIRECTION('',(1.,0.,0.));
#200=ADVANCED_FACE('',(#201,#217),#226,.T.);
#201=FACE_BOUND('',#202,.T.);
#202=EDGE_LOOP('',(#20,#203,#209,#214));
#203=ORIENTED_EDGE('',*,*,#204,.T.);
#204=EDGE_CURVE('',#22,#205,#207,.T.);
#205=VERTEX_POINT('',#206);
#206=CARTESIAN_POINT('',(2.,-2.5,0.8));
#207=LINE('',#23,#208);
#208=VECTOR('',#199,1.);
#209=ORIENTED_EDGE('',*,*,#210,.T.);
#210=EDGE_CURVE('',#205,#211,#213,.T.);
#211=VERTEX_POINT('',#212);
#212=CARTESIAN_POINT('',(2.,2.5,0.8));
#213=LINE('',#206,#27);
#214=ORIENTED_EDGE('',*,*,#215,.F.);
#215=EDGE_CURVE('',#24,#211,#216,.T.);
#216=LINE('',#25,#208);
#217=FACE_BOUND('',#218,.T.);
#218=EDGE_LOOP('',(#219));
#219=ORIENTED_EDGE('',*,*,#220,.F.);
#220=EDGE_CURVE('',#221,#221,#223,.T.);
#221=VERTEX_POINT('',#222);
#222=CARTESIAN_POINT('',(-1.25,2.,0.8));
#223=CIRCLE('',#224,0.25);
#224=AXIS2_PLACEMENT_3D('',#225,#13,#199);
#225=CARTESIAN_POINT('',(-1.5,2.,0.8));
#226=PLANE('',#227);
#227=AXIS2_PLACEMENT_3D('',#23,#13,#199);
#228=ADVANCED_FACE('',(#229),#356,.T.);
#229=FACE_BOUND('',#230,.T.);
#230=EDGE_LOOP('',(#231,#194,#236,#237,#242,#246,#251,#258,#263,#267,#272,#277,#282,#286,#291,#296,#301,#305,#310,#315,#320,#324,#329,#334,#339,#343,#348,#353));
#231=ORIENTED_EDGE('',*,*,#232,.F.);
#232=EDGE_CURVE('',#192,#233,#235,.T.);
#233=VERTEX_POINT('',#234);
#234=CARTESIAN_POINT('',(-1.375,2.5,0.));
#235=LINE('',#193,#208);
#236=ORIENTED_EDGE('',*,*,#215,.T.);
#237=ORIENTED_EDGE('',*,*,#238,.F.);
#238=EDGE_CURVE('',#239,#211,#241,.T.);
#239=VERTEX_POINT('',#240);
#240=CARTESIAN_POINT('',(2.,2.5,0.));
#241=LINE('',#240,#34);
#242=ORIENTED_EDGE('',*,*,#243,.F.);
#243=EDGE_CURVE('',#244,#239,#235,.T.);
#244=VERTEX_POINT('',#245);
#245=CARTESIAN_POINT('',(1.375,2.5,0.));
#246=ORIENTED_EDGE('',*,*,#247,.T.);
#247=EDGE_CURVE('',#244,#248,#250,.T.);
#248=VERTEX_POINT('',#249);
#249=CARTESIAN_POINT('',(1.375,2.5,0.15));
#250=LINE('',#245,#34);
#251=ORIENTED_EDGE('',*,*,#252,.T.);
#252=EDGE_CURVE('',#248,#253,#255,.T.);
#253=VERTEX_POINT('',#254);
#254=CARTESIAN_POINT('',(1.125,2.5,0.15));
#255=LINE('',#249,#256);
#256=VECTOR('',#257,1.);
#257=DIRECTION('',(-1.,0.,0.));
#258=ORIENTED_EDGE('',*,*,#259,.F.);
#259=EDGE_CURVE('',#260,#253,#262,.T.);
#260=VERTEX_POINT('',#261);
#261=CARTESIAN_POINT('',(1.125,2.5,0.));
#262=LINE('',#261,#34);
#263=ORIENTED_EDGE('',*,*,#264,.F.);
#264=EDGE_CURVE('',#265,#260,#235,.T.);
#265=VERTEX_POINT('',#266);
#266=CARTESIAN_POINT('',(0.875,2.5,0.));
#267=ORIENTED_EDGE('',*,*,#268,.T.);
#268=EDGE_CURVE('',#265,#269,#271,.T.);
#269=VERTEX_POINT('',#270);
#270=CARTESIAN_POINT('',(0.875,2.5,0.15));
#271=LINE('',#266,#34);
#272=ORIENTED_EDGE('',*,*,#273,.T.);
#273=EDGE_CURVE('',#269,#274,#276,.T.);
#274=VERTEX_POINT('',#275);
#275=CARTESIAN_POINT('',(0.625,2.5,0.15));
#276=LINE('',#270,#256);
#277=ORIENTED_EDGE('',*,*,#278,.F.);
#278=EDGE_CURVE('',#279,#274,#281,.T.);
#279=VERTEX_POINT('',#280);
#280=CARTESIAN_POINT('',(0.625,2.5,0.));
#281=LINE('',#280,#34);
#282=ORIENTED_EDGE('',*,*,#283,.F.);
#283=EDGE_CURVE('',#284,#279,#235,.T.);
#284=VERTEX_POINT('',#285);
#285=CARTESIAN_POINT('',(0.375,2.5,0.));
#286=ORIENTED_EDGE('',*,*,#287,.T.);
#287=EDGE_CURVE('',#284,#288,#290,.T.);
#288=VERTEX_POINT('',#289);
#289=CARTESIAN_POINT('',(0.375,2.5,0.15));
#290=LINE('',#285,#34);
#291=ORIENTED_EDGE('',*,*,#292,.T.);
#292=EDGE_CURVE('',#288,#293,#295,.T.);
#293=VERTEX_POINT('',#294);
#294=CARTESIAN_POINT('',(0.125,2.5,0.15));
#295=LINE('',#289,#256);
#296=ORIENTED_EDGE('',*,*,#297,.F.);
#297=EDGE_CURVE('',#298,#293,#300,.T.);
#298=VERTEX_POINT('',#299);
#299=CARTESIAN_POINT('',(0.125,2.5,0.));
#300=LINE('',#299,#34);
#301=ORIENTED_EDGE('',*,*,#302,.F.);
#302=EDGE_CURVE('',#303,#298,#235,.T.);
#303=VERTEX_POINT('',#304);
#304=CARTESIAN_POINT('',(-0.125,2.5,0.));
#305=ORIENTED_EDGE('',*,*,#306,.T.);
#306=EDGE_CURVE('',#303,#307,#309,.T.);
#307=VERTEX_POINT('',#308);
#308=CARTESIAN_POINT('',(-0.125,2.5,0.15));
#309=LINE('',#304,#34);
#310=ORIENTED_EDGE('',*,*,#311,.T.);
#311=EDGE_CURVE('',#307,#312,#314,.T.);
#312=VERTEX_POINT('',#313);
#313=CARTESIAN_POINT('',(-0.375,2.5,0.15));
#314=LINE('',#308,#256);
#315=ORIENTED_EDGE('',*,*,#316,.F.);
#316=EDGE_CURVE('',#317,#312,#319,.T.);
#317=VERTEX_POINT('',#318);
#318=CARTESIAN_POINT('',(-0.375,2.5,0.));
#319=LINE('',#318,#34);
#320=ORIENTED_EDGE('',*,*,#321,.F.);
#321=EDGE_CURVE('',#322,#317,#235,.T.);
#322=VERTEX_POINT('',#323);
#323=CARTESIAN_POINT('',(-0.625,2.5,0.));
#324=ORIENTED_EDGE('',*,*,#325,.T.);
#325=EDGE_CURVE('',#322,#326,#328,.T.);
#326=VERTEX_POINT('',#327);
#327=CARTESIAN_POINT('',(-0.625,2.5,0.15));
#328=LINE('',#323,#34);
#329=ORIENTED_EDGE('',*,*,#330,.T.);
#330=EDGE_CURVE('',#326,#331,#333,.T.);
#331=VERTEX_POINT('',#332);
#332=CARTESIAN_POINT('',(-0.875,2.5,0.15));
#333=LINE('',#327,#256);
#334=ORIENTED_EDGE('',*,*,#335,.F.);
#335=EDGE_CURVE('',#336,#331,#338,.T.);
#336=VERTEX_POINT('',#337);
#337=CARTESIAN_POINT('',(-0.875,2.5,0.));
#338=LINE('',#337,#34);
#339=ORIENTED_EDGE('',*,*,#340,.F.);
#340=EDGE_CURVE('',#341,#336,#235,.T.);
#341=VERTEX_POINT('',#342);
#342=CARTESIAN_POINT('',(-1.125,2.5,0.));
#343=ORIENTED_EDGE('',*,*,#344,.T.);
#344=EDGE_CURVE('',#341,#345,#347,.T.);
#345=VERTEX_POINT('',#346);
#346=CARTESIAN_POINT('',(-1.125,2.5,0.15));
#347=LINE('',#342,#34);
#348=ORIENTED_EDGE('',*,*,#349,.T.);
#349=EDGE_CURVE('',#345,#350,#352,.T.);
#350=VERTEX_POINT('',#351);
#351=CARTESIAN_POINT('',(-1.375,2.5,0.15));
#352=LINE('',#346,#256);
#353=ORIENTED_EDGE('',*,*,#354,.F.);
#354=EDGE_CURVE('',#233,#350,#355,.T.);
#355=LINE('',#234,#34);
#356=PLANE('',#357);
#357=AXIS2_PLACEMENT_3D('',#193,#28,#13);
#358=ADVANCED_FACE('',(#359,#901),#925,.F.);
#359=FACE_BOUND('',#360,.F.);
#360=EDGE_LOOP('',(#361,#362,#367,#374,#383,#390,#394,#399,#406,#411,#415,#420,#427,#432,#436,#441,#448,#453,#457,#462,#469,#474,#478,#483,#490,#495,#499,#504,#511,#520,#527,#531,#536,#543,#548,#552,#557,#564,#569,#573,#578,#585,#590,#594,#599,#606,#611,#615,#620,#627,#632,#636,#641,#648,#653,#657,#662,#669,#674,#242,#676,#681,#689,#263,#694,#699,#706,#282,#709,#714,#721,#301,#724,#729,#736,#320,#739,#744,#751,#339,#754,#759,#766,#231,#769,#770,#777,#784,#789,#790,#795,#802,#805,#806,#811,#818,#821,#822,#827,#834,#837,#838,#843,#850,#853,#854,#859,#866,#869,#870,#875,#882,#885,#886,#891,#898));
#361=ORIENTED_EDGE('',*,*,#36,.F.);
#362=ORIENTED_EDGE('',*,*,#363,.T.);
#363=EDGE_CURVE('',#31,#364,#366,.T.);
#364=VERTEX_POINT('',#365);
#365=CARTESIAN_POINT('',(-1.375,-2.5,0.));
#366=LINE('',#32,#208);
#367=ORIENTED_EDGE('',*,*,#368,.F.);
#368=EDGE_CURVE('',#369,#364,#371,.T.);
#369=VERTEX_POINT('',#370);
#370=CARTESIAN_POINT('',(-1.375,-2.225,0.));
#371=LINE('',#370,#372);
#372=VECTOR('',#373,1.);
#373=DIRECTION('',(-1.224646799147E-16,-1.,0.));
#374=ORIENTED_EDGE('',*,*,#375,.F.);
#375=EDGE_CURVE('',#376,#369,#378,.T.);
#376=VERTEX_POINT('',#377);
#377=CARTESIAN_POINT('',(-1.125,-2.225,0.));
#378=CIRCLE('',#379,0.125);
#379=AXIS2_PLACEMENT_3D('',#380,#381,#382);
#380=CARTESIAN_POINT('',(-1.25,-2.225,0.));
#381=DIRECTION('',(-0.,0.,1.));
#382=DIRECTION('',(1.,-1.224646799147E-16,0.));
#383=ORIENTED_EDGE('',*,*,#384,.F.);
#384=EDGE_CURVE('',#385,#376,#387,.T.);
#385=VERTEX_POINT('',#386);
#386=CARTESIAN_POINT('',(-1.125,-2.5,0.));
#387=LINE('',#386,#388);
#388=VECTOR('',#389,1.);
#389=DIRECTION('',(7.199999697723E-17,1.,0.));
#390=ORIENTED_EDGE('',*,*,#391,.T.);
#391=EDGE_CURVE('',#385,#392,#366,.T.);
#392=VERTEX_POINT('',#393);
#393=CARTESIAN_POINT('',(-0.875,-2.5,0.));
#394=ORIENTED_EDGE('',*,*,#395,.F.);
#395=EDGE_CURVE('',#396,#392,#398,.T.);
#396=VERTEX_POINT('',#397);
#397=CARTESIAN_POINT('',(-0.875,-2.225,0.));
#398=LINE('',#397,#372);
#399=ORIENTED_EDGE('',*,*,#400,.F.);
#400=EDGE_CURVE('',#401,#396,#403,.T.);
#401=VERTEX_POINT('',#402);
#402=CARTESIAN_POINT('',(-0.625,-2.225,0.));
#403=CIRCLE('',#404,0.125);
#404=AXIS2_PLACEMENT_3D('',#405,#381,#382);
#405=CARTESIAN_POINT('',(-0.75,-2.225,0.));
#406=ORIENTED_EDGE('',*,*,#407,.F.);
#407=EDGE_CURVE('',#408,#401,#410,.T.);
#408=VERTEX_POINT('',#409);
#409=CARTESIAN_POINT('',(-0.625,-2.5,0.));
#410=LINE('',#409,#388);
#411=ORIENTED_EDGE('',*,*,#412,.T.);
#412=EDGE_CURVE('',#408,#413,#366,.T.);
#413=VERTEX_POINT('',#414);
#414=CARTESIAN_POINT('',(-0.375,-2.5,0.));
#415=ORIENTED_EDGE('',*,*,#416,.F.);
#416=EDGE_CURVE('',#417,#413,#419,.T.);
#417=VERTEX_POINT('',#418);
#418=CARTESIAN_POINT('',(-0.375,-2.225,0.));
#419=LINE('',#418,#372);
#420=ORIENTED_EDGE('',*,*,#421,.F.);
#421=EDGE_CURVE('',#422,#417,#424,.T.);
#422=VERTEX_POINT('',#423);
#423=CARTESIAN_POINT('',(-0.125,-2.225,0.));
#424=CIRCLE('',#425,0.125);
#425=AXIS2_PLACEMENT_3D('',#426,#381,#382);
#426=CARTESIAN_POINT('',(-0.25,-2.225,0.));
#427=ORIENTED_EDGE('',*,*,#428,.F.);
#428=EDGE_CURVE('',#429,#422,#431,.T.);
#429=VERTEX_POINT('',#430);
#430=CARTESIAN_POINT('',(-0.125,-2.5,0.));
#431=LINE('',#430,#388);
#432=ORIENTED_EDGE('',*,*,#433,.T.);
#433=EDGE_CURVE('',#429,#434,#366,.T.);
#434=VERTEX_POINT('',#435);
#435=CARTESIAN_POINT('',(0.125,-2.5,0.));
#436=ORIENTED_EDGE('',*,*,#437,.F.);
#437=EDGE_CURVE('',#438,#434,#440,.T.);
#438=VERTEX_POINT('',#439);
#439=CARTESIAN_POINT('',(0.125,-2.225,0.));
#440=LINE('',#439,#372);
#441=ORIENTED_EDGE('',*,*,#442,.F.);
#442=EDGE_CURVE('',#443,#438,#445,.T.);
#443=VERTEX_POINT('',#444);
#444=CARTESIAN_POINT('',(0.375,-2.225,0.));
#445=CIRCLE('',#446,0.125);
#446=AXIS2_PLACEMENT_3D('',#447,#381,#382);
#447=CARTESIAN_POINT('',(0.25,-2.225,0.));
#448=ORIENTED_EDGE('',*,*,#449,.F.);
#449=EDGE_CURVE('',#450,#443,#452,.T.);
#450=VERTEX_POINT('',#451);
#451=CARTESIAN_POINT('',(0.375,-2.5,0.));
#452=LINE('',#451,#388);
#453=ORIENTED_EDGE('',*,*,#454,.T.);
#454=EDGE_CURVE('',#450,#455,#366,.T.);
#455=VERTEX_POINT('',#456);
#456=CARTESIAN_POINT('',(0.625,-2.5,0.));
#457=ORIENTED_EDGE('',*,*,#458,.F.);
#458=EDGE_CURVE('',#459,#455,#461,.T.);
#459=VERTEX_POINT('',#460);
#460=CARTESIAN_POINT('',(0.625,-2.225,0.));
#461=LINE('',#460,#372);
#462=ORIENTED_EDGE('',*,*,#463,.F.);
#463=EDGE_CURVE('',#464,#459,#466,.T.);
#464=VERTEX_POINT('',#465);
#465=CARTESIAN_POINT('',(0.875,-2.225,0.));
#466=CIRCLE('',#467,0.125);
#467=AXIS2_PLACEMENT_3D('',#468,#381,#382);
#468=CARTESIAN_POINT('',(0.75,-2.225,0.));
#469=ORIENTED_EDGE('',*,*,#470,.F.);
#470=EDGE_CURVE('',#471,#464,#473,.T.);
#471=VERTEX_POINT('',#472);
#472=CARTESIAN_POINT('',(0.875,-2.5,0.));
#473=LINE('',#472,#388);
#474=ORIENTED_EDGE('',*,*,#475,.T.);
#475=EDGE_CURVE('',#471,#476,#366,.T.);
#476=VERTEX_POINT('',#477);
#477=CARTESIAN_POINT('',(1.125,-2.5,0.));
#478=ORIENTED_EDGE('',*,*,#479,.F.);
#479=EDGE_CURVE('',#480,#476,#482,.T.);
#480=VERTEX_POINT('',#481);
#481=CARTESIAN_POINT('',(1.125,-2.225,0.));
#482=LINE('',#481,#372);
#483=ORIENTED_EDGE('',*,*,#484,.F.);
#484=EDGE_CURVE('',#485,#480,#487,.T.);
#485=VERTEX_POINT('',#486);
#486=CARTESIAN_POINT('',(1.375,-2.225,0.));
#487=CIRCLE('',#488,0.125);
#488=AXIS2_PLACEMENT_3D('',#489,#381,#382);
#489=CARTESIAN_POINT('',(1.25,-2.225,0.));
#490=ORIENTED_EDGE('',*,*,#491,.F.);
#491=EDGE_CURVE('',#492,#485,#494,.T.);
#492=VERTEX_POINT('',#493);
#493=CARTESIAN_POINT('',(1.375,-2.5,0.));
#494=LINE('',#493,#388);
#495=ORIENTED_EDGE('',*,*,#496,.T.);
#496=EDGE_CURVE('',#492,#497,#366,.T.);
#497=VERTEX_POINT('',#498);
#498=CARTESIAN_POINT('',(2.,-2.5,0.));
#499=ORIENTED_EDGE('',*,*,#500,.T.);
#500=EDGE_CURVE('',#497,#501,#503,.T.);
#501=VERTEX_POINT('',#502);
#502=CARTESIAN_POINT('',(2.,-1.875,0.));
#503=LINE('',#498,#27);
#504=ORIENTED_EDGE('',*,*,#505,.F.);
#505=EDGE_CURVE('',#506,#501,#508,.T.);
#506=VERTEX_POINT('',#507);
#507=CARTESIAN_POINT('',(1.725,-1.875,0.));
#508=LINE('',#507,#509);
#509=VECTOR('',#510,1.);
#510=DIRECTION('',(1.,-2.22044604925E-16,0.));
#511=ORIENTED_EDGE('',*,*,#512,.F.);
#512=EDGE_CURVE('',#513,#506,#515,.T.);
#513=VERTEX_POINT('',#514);
#514=CARTESIAN_POINT('',(1.725,-1.625,0.));
#515=CIRCLE('',#516,0.125);
#516=AXIS2_PLACEMENT_3D('',#517,#518,#519);
#517=CARTESIAN_POINT('',(1.725,-1.75,0.));
#518=DIRECTION('',(0.,-0.,1.));
#519=DIRECTION('',(2.22044604925E-16,1.,0.));
#520=ORIENTED_EDGE('',*,*,#521,.F.);
#521=EDGE_CURVE('',#522,#513,#524,.T.);
#522=VERTEX_POINT('',#523);
#523=CARTESIAN_POINT('',(2.,-1.625,0.));
#524=LINE('',#523,#525);
#525=VECTOR('',#526,1.);
#526=DIRECTION('',(-1.,1.715799219875E-16,0.));
#527=ORIENTED_EDGE('',*,*,#528,.T.);
#528=EDGE_CURVE('',#522,#529,#503,.T.);
#529=VERTEX_POINT('',#530);
#530=CARTESIAN_POINT('',(2.,-1.375,0.));
#531=ORIENTED_EDGE('',*,*,#532,.F.);
#532=EDGE_CURVE('',#533,#529,#535,.T.);
#533=VERTEX_POINT('',#534);
#534=CARTESIAN_POINT('',(1.725,-1.375,0.));
#535=LINE('',#534,#509);
#536=ORIENTED_EDGE('',*,*,#537,.F.);
#537=EDGE_CURVE('',#538,#533,#540,.T.);
#538=VERTEX_POINT('',#539);
#539=CARTESIAN_POINT('',(1.725,-1.125,0.));
#540=CIRCLE('',#541,0.125);
#541=AXIS2_PLACEMENT_3D('',#542,#518,#519);
#542=CARTESIAN_POINT('',(1.725,-1.25,0.));
#543=ORIENTED_EDGE('',*,*,#544,.F.);
#544=EDGE_CURVE('',#545,#538,#547,.T.);
#545=VERTEX_POINT('',#546);
#546=CARTESIAN_POINT('',(2.,-1.125,0.));
#547=LINE('',#546,#525);
#548=ORIENTED_EDGE('',*,*,#549,.T.);
#549=EDGE_CURVE('',#545,#550,#503,.T.);
#550=VERTEX_POINT('',#551);
#551=CARTESIAN_POINT('',(2.,-0.875,0.));
#552=ORIENTED_EDGE('',*,*,#553,.F.);
#553=EDGE_CURVE('',#554,#550,#556,.T.);
#554=VERTEX_POINT('',#555);
#555=CARTESIAN_POINT('',(1.725,-0.875,0.));
#556=LINE('',#555,#509);
#557=ORIENTED_EDGE('',*,*,#558,.F.);
#558=EDGE_CURVE('',#559,#554,#561,.T.);
#559=VERTEX_POINT('',#560);
#560=CARTESIAN_POINT('',(1.725,-0.625,0.));
#561=CIRCLE('',#562,0.125);
#562=AXIS2_PLACEMENT_3D('',#563,#518,#519);
#563=CARTESIAN_POINT('',(1.725,-0.75,0.));
#564=ORIENTED_EDGE('',*,*,#565,.F.);
#565=EDGE_CURVE('',#566,#559,#568,.T.);
#566=VERTEX_POINT('',#567);
#567=CARTESIAN_POINT('',(2.,-0.625,0.));
#568=LINE('',#567,#525);
#569=ORIENTED_EDGE('',*,*,#570,.T.);
#570=EDGE_CURVE('',#566,#571,#503,.T.);
#571=VERTEX_POINT('',#572);
#572=CARTESIAN_POINT('',(2.,-0.375,0.));
#573=ORIENTED_EDGE('',*,*,#574,.F.);
#574=EDGE_CURVE('',#575,#571,#577,.T.);
#575=VERTEX_POINT('',#576);
#576=CARTESIAN_POINT('',(1.725,-0.375,0.));
#577=LINE('',#576,#509);
#578=ORIENTED_EDGE('',*,*,#579,.F.);
#579=EDGE_CURVE('',#580,#575,#582,.T.);
#580=VERTEX_POINT('',#581);
#581=CARTESIAN_POINT('',(1.725,-0.125,0.));
#582=CIRCLE('',#583,0.125);
#583=AXIS2_PLACEMENT_3D('',#584,#518,#519);
#584=CARTESIAN_POINT('',(1.725,-0.25,0.));
#585=ORIENTED_EDGE('',*,*,#586,.F.);
#586=EDGE_CURVE('',#587,#580,#589,.T.);
#587=VERTEX_POINT('',#588);
#588=CARTESIAN_POINT('',(2.,-0.125,0.));
#589=LINE('',#588,#525);
#590=ORIENTED_EDGE('',*,*,#591,.T.);
#591=EDGE_CURVE('',#587,#592,#503,.T.);
#592=VERTEX_POINT('',#593);
#593=CARTESIAN_POINT('',(2.,0.125,0.));
#594=ORIENTED_EDGE('',*,*,#595,.F.);
#595=EDGE_CURVE('',#596,#592,#598,.T.);
#596=VERTEX_POINT('',#597);
#597=CARTESIAN_POINT('',(1.725,0.125,0.));
#598=LINE('',#597,#509);
#599=ORIENTED_EDGE('',*,*,#600,.F.);
#600=EDGE_CURVE('',#601,#596,#603,.T.);
#601=VERTEX_POINT('',#602);
#602=CARTESIAN_POINT('',(1.725,0.375,0.));
#603=CIRCLE('',#604,0.125);
#604=AXIS2_PLACEMENT_3D('',#605,#518,#519);
#605=CARTESIAN_POINT('',(1.725,0.25,0.));
#606=ORIENTED_EDGE('',*,*,#607,.F.);
#607=EDGE_CURVE('',#608,#601,#610,.T.);
#608=VERTEX_POINT('',#609);
#609=CARTESIAN_POINT('',(2.,0.375,0.));
#610=LINE('',#609,#525);
#611=ORIENTED_EDGE('',*,*,#612,.T.);
#612=EDGE_CURVE('',#608,#613,#503,.T.);
#613=VERTEX_POINT('',#614);
#614=CARTESIAN_POINT('',(2.,0.625,0.));
#615=ORIENTED_EDGE('',*,*,#616,.F.);
#616=EDGE_CURVE('',#617,#613,#619,.T.);
#617=VERTEX_POINT('',#618);
#618=CARTESIAN_POINT('',(1.725,0.625,0.));
#619=LINE('',#618,#509);
#620=ORIENTED_EDGE('',*,*,#621,.F.);
#621=EDGE_CURVE('',#622,#617,#624,.T.);
#622=VERTEX_POINT('',#623);
#623=CARTESIAN_POINT('',(1.725,0.875,0.));
#624=CIRCLE('',#625,0.125);
#625=AXIS2_PLACEMENT_3D('',#626,#518,#519);
#626=CARTESIAN_POINT('',(1.725,0.75,0.));
#627=ORIENTED_EDGE('',*,*,#628,.F.);
#628=EDGE_CURVE('',#629,#622,#631,.T.);
#629=VERTEX_POINT('',#630);
#630=CARTESIAN_POINT('',(2.,0.875,0.));
#631=LINE('',#630,#525);
#632=ORIENTED_EDGE('',*,*,#633,.T.);
#633=EDGE_CURVE('',#629,#634,#503,.T.);
#634=VERTEX_POINT('',#635);
#635=CARTESIAN_POINT('',(2.,1.125,0.));
#636=ORIENTED_EDGE('',*,*,#637,.F.);
#637=EDGE_CURVE('',#638,#634,#640,.T.);
#638=VERTEX_POINT('',#639);
#639=CARTESIAN_POINT('',(1.725,1.125,0.));
#640=LINE('',#639,#509);
#641=ORIENTED_EDGE('',*,*,#642,.F.);
#642=EDGE_CURVE('',#643,#638,#645,.T.);
#643=VERTEX_POINT('',#644);
#644=CARTESIAN_POINT('',(1.725,1.375,0.));
#645=CIRCLE('',#646,0.125);
#646=AXIS2_PLACEMENT_3D('',#647,#518,#519);
#647=CARTESIAN_POINT('',(1.725,1.25,0.));
#648=ORIENTED_EDGE('',*,*,#649,.F.);
#649=EDGE_CURVE('',#650,#643,#652,.T.);
#650=VERTEX_POINT('',#651);
#651=CARTESIAN_POINT('',(2.,1.375,0.));
#652=LINE('',#651,#525);
#653=ORIENTED_EDGE('',*,*,#654,.T.);
#654=EDGE_CURVE('',#650,#655,#503,.T.);
#655=VERTEX_POINT('',#656);
#656=CARTESIAN_POINT('',(2.,1.625,0.));
#657=ORIENTED_EDGE('',*,*,#658,.F.);
#658=EDGE_CURVE('',#659,#655,#661,.T.);
#659=VERTEX_POINT('',#660);
#660=CARTESIAN_POINT('',(1.725,1.625,0.));
#661=LINE('',#660,#509);
#662=ORIENTED_EDGE('',*,*,#663,.F.);
#663=EDGE_CURVE('',#664,#659,#666,.T.);
#664=VERTEX_POINT('',#665);
#665=CARTESIAN_POINT('',(1.725,1.875,0.));
#666=CIRCLE('',#667,0.125);
#667=AXIS2_PLACEMENT_3D('',#668,#518,#519);
#668=CARTESIAN_POINT('',(1.725,1.75,0.));
#669=ORIENTED_EDGE('',*,*,#670,.F.);
#670=EDGE_CURVE('',#671,#664,#673,.T.);
#671=VERTEX_POINT('',#672);
#672=CARTESIAN_POINT('',(2.,1.875,0.));
#673=LINE('',#672,#525);
#674=ORIENTED_EDGE('',*,*,#675,.T.);
#675=EDGE_CURVE('',#671,#239,#503,.T.);
#676=ORIENTED_EDGE('',*,*,#677,.F.);
#677=EDGE_CURVE('',#678,#244,#680,.T.);
#678=VERTEX_POINT('',#679);
#679=CARTESIAN_POINT('',(1.375,2.225,0.));
#680=LINE('',#679,#27);
#681=ORIENTED_EDGE('',*,*,#682,.F.);
#682=EDGE_CURVE('',#683,#678,#685,.T.);
#683=VERTEX_POINT('',#684);
#684=CARTESIAN_POINT('',(1.125,2.225,0.));
#685=CIRCLE('',#686,0.125);
#686=AXIS2_PLACEMENT_3D('',#687,#13,#688);
#687=CARTESIAN_POINT('',(1.25,2.225,0.));
#688=DIRECTION('',(-1.,0.,-0.));
#689=ORIENTED_EDGE('',*,*,#690,.F.);
#690=EDGE_CURVE('',#260,#683,#691,.T.);
#691=LINE('',#261,#692);
#692=VECTOR('',#693,1.);
#693=DIRECTION('',(5.046468293751E-17,-1.,0.));
#694=ORIENTED_EDGE('',*,*,#695,.F.);
#695=EDGE_CURVE('',#696,#265,#698,.T.);
#696=VERTEX_POINT('',#697);
#697=CARTESIAN_POINT('',(0.875,2.225,0.));
#698=LINE('',#697,#27);
#699=ORIENTED_EDGE('',*,*,#700,.F.);
#700=EDGE_CURVE('',#701,#696,#703,.T.);
#701=VERTEX_POINT('',#702);
#702=CARTESIAN_POINT('',(0.625,2.225,0.));
#703=CIRCLE('',#704,0.125);
#704=AXIS2_PLACEMENT_3D('',#705,#13,#688);
#705=CARTESIAN_POINT('',(0.75,2.225,0.));
#706=ORIENTED_EDGE('',*,*,#707,.F.);
#707=EDGE_CURVE('',#279,#701,#708,.T.);
#708=LINE('',#280,#692);
#709=ORIENTED_EDGE('',*,*,#710,.F.);
#710=EDGE_CURVE('',#711,#284,#713,.T.);
#711=VERTEX_POINT('',#712);
#712=CARTESIAN_POINT('',(0.375,2.225,0.));
#713=LINE('',#712,#27);
#714=ORIENTED_EDGE('',*,*,#715,.F.);
#715=EDGE_CURVE('',#716,#711,#718,.T.);
#716=VERTEX_POINT('',#717);
#717=CARTESIAN_POINT('',(0.125,2.225,0.));
#718=CIRCLE('',#719,0.125);
#719=AXIS2_PLACEMENT_3D('',#720,#13,#688);
#720=CARTESIAN_POINT('',(0.25,2.225,0.));
#721=ORIENTED_EDGE('',*,*,#722,.F.);
#722=EDGE_CURVE('',#298,#716,#723,.T.);
#723=LINE('',#299,#692);
#724=ORIENTED_EDGE('',*,*,#725,.F.);
#725=EDGE_CURVE('',#726,#303,#728,.T.);
#726=VERTEX_POINT('',#727);
#727=CARTESIAN_POINT('',(-0.125,2.225,0.));
#728=LINE('',#727,#27);
#729=ORIENTED_EDGE('',*,*,#730,.F.);
#730=EDGE_CURVE('',#731,#726,#733,.T.);
#731=VERTEX_POINT('',#732);
#732=CARTESIAN_POINT('',(-0.375,2.225,0.));
#733=CIRCLE('',#734,0.125);
#734=AXIS2_PLACEMENT_3D('',#735,#13,#688);
#735=CARTESIAN_POINT('',(-0.25,2.225,0.));
#736=ORIENTED_EDGE('',*,*,#737,.F.);
#737=EDGE_CURVE('',#317,#731,#738,.T.);
#738=LINE('',#318,#692);
#739=ORIENTED_EDGE('',*,*,#740,.F.);
#740=EDGE_CURVE('',#741,#322,#743,.T.);
#741=VERTEX_POINT('',#742);
#742=CARTESIAN_POINT('',(-0.625,2.225,0.));
#743=LINE('',#742,#27);
#744=ORIENTED_EDGE('',*,*,#745,.F.);
#745=EDGE_CURVE('',#746,#741,#748,.T.);
#746=VERTEX_POINT('',#747);
#747=CARTESIAN_POINT('',(-0.875,2.225,0.));
#748=CIRCLE('',#749,0.125);
#749=AXIS2_PLACEMENT_3D('',#750,#13,#688);
#750=CARTESIAN_POINT('',(-0.75,2.225,0.));
#751=ORIENTED_EDGE('',*,*,#752,.F.);
#752=EDGE_CURVE('',#336,#746,#753,.T.);
#753=LINE('',#337,#692);
#754=ORIENTED_EDGE('',*,*,#755,.F.);
#755=EDGE_CURVE('',#756,#341,#758,.T.);
#756=VERTEX_POINT('',#757);
#757=CARTESIAN_POINT('',(-1.125,2.225,0.));
#758=LINE('',#757,#27);
#759=ORIENTED_EDGE('',*,*,#760,.F.);
#760=EDGE_CURVE('',#761,#756,#763,.T.);
#761=VERTEX_POINT('',#762);
#762=CARTESIAN_POINT('',(-1.375,2.225,0.));
#763=CIRCLE('',#764,0.125);
#764=AXIS2_PLACEMENT_3D('',#765,#13,#688);
#765=CARTESIAN_POINT('',(-1.25,2.225,0.));
#766=ORIENTED_EDGE('',*,*,#767,.F.);
#767=EDGE_CURVE('',#233,#761,#768,.T.);
#768=LINE('',#234,#692);
#769=ORIENTED_EDGE('',*,*,#191,.F.);
#770=ORIENTED_EDGE('',*,*,#771,.F.);
#771=EDGE_CURVE('',#772,#187,#774,.T.);
#772=VERTEX_POINT('',#773);
#773=CARTESIAN_POINT('',(-1.725,1.875,0.));
#774=LINE('',#773,#775);
#775=VECTOR('',#776,1.);
#776=DIRECTION('',(-1.,1.110223024625E-16,0.));
#777=ORIENTED_EDGE('',*,*,#778,.F.);
#778=EDGE_CURVE('',#779,#772,#781,.T.);
#779=VERTEX_POINT('',#780);
#780=CARTESIAN_POINT('',(-1.725,1.625,0.));
#781=CIRCLE('',#782,0.125);
#782=AXIS2_PLACEMENT_3D('',#783,#13,#51);
#783=CARTESIAN_POINT('',(-1.725,1.75,0.));
#784=ORIENTED_EDGE('',*,*,#785,.F.);
#785=EDGE_CURVE('',#173,#779,#786,.T.);
#786=LINE('',#174,#787);
#787=VECTOR('',#788,1.);
#788=DIRECTION('',(1.,-6.055761952501E-17,0.));
#789=ORIENTED_EDGE('',*,*,#172,.F.);
#790=ORIENTED_EDGE('',*,*,#791,.F.);
#791=EDGE_CURVE('',#792,#168,#794,.T.);
#792=VERTEX_POINT('',#793);
#793=CARTESIAN_POINT('',(-1.725,1.375,0.));
#794=LINE('',#793,#775);
#795=ORIENTED_EDGE('',*,*,#796,.F.);
#796=EDGE_CURVE('',#797,#792,#799,.T.);
#797=VERTEX_POINT('',#798);
#798=CARTESIAN_POINT('',(-1.725,1.125,0.));
#799=CIRCLE('',#800,0.125);
#800=AXIS2_PLACEMENT_3D('',#801,#13,#51);
#801=CARTESIAN_POINT('',(-1.725,1.25,0.));
#802=ORIENTED_EDGE('',*,*,#803,.F.);
#803=EDGE_CURVE('',#154,#797,#804,.T.);
#804=LINE('',#155,#787);
#805=ORIENTED_EDGE('',*,*,#153,.F.);
#806=ORIENTED_EDGE('',*,*,#807,.F.);
#807=EDGE_CURVE('',#808,#149,#810,.T.);
#808=VERTEX_POINT('',#809);
#809=CARTESIAN_POINT('',(-1.725,0.875,0.));
#810=LINE('',#809,#775);
#811=ORIENTED_EDGE('',*,*,#812,.F.);
#812=EDGE_CURVE('',#813,#808,#815,.T.);
#813=VERTEX_POINT('',#814);
#814=CARTESIAN_POINT('',(-1.725,0.625,0.));
#815=CIRCLE('',#816,0.125);
#816=AXIS2_PLACEMENT_3D('',#817,#13,#51);
#817=CARTESIAN_POINT('',(-1.725,0.75,0.));
#818=ORIENTED_EDGE('',*,*,#819,.F.);
#819=EDGE_CURVE('',#135,#813,#820,.T.);
#820=LINE('',#136,#787);
#821=ORIENTED_EDGE('',*,*,#134,.F.);
#822=ORIENTED_EDGE('',*,*,#823,.F.);
#823=EDGE_CURVE('',#824,#130,#826,.T.);
#824=VERTEX_POINT('',#825);
#825=CARTESIAN_POINT('',(-1.725,0.375,0.));
#826=LINE('',#825,#775);
#827=ORIENTED_EDGE('',*,*,#828,.F.);
#828=EDGE_CURVE('',#829,#824,#831,.T.);
#829=VERTEX_POINT('',#830);
#830=CARTESIAN_POINT('',(-1.725,0.125,0.));
#831=CIRCLE('',#832,0.125);
#832=AXIS2_PLACEMENT_3D('',#833,#13,#51);
#833=CARTESIAN_POINT('',(-1.725,0.25,0.));
#834=ORIENTED_EDGE('',*,*,#835,.F.);
#835=EDGE_CURVE('',#116,#829,#836,.T.);
#836=LINE('',#117,#787);
#837=ORIENTED_EDGE('',*,*,#115,.F.);
#838=ORIENTED_EDGE('',*,*,#839,.F.);
#839=EDGE_CURVE('',#840,#111,#842,.T.);
#840=VERTEX_POINT('',#841);
#841=CARTESIAN_POINT('',(-1.725,-0.125,0.));
#842=LINE('',#841,#775);
#843=ORIENTED_EDGE('',*,*,#844,.F.);
#844=EDGE_CURVE('',#845,#840,#847,.T.);
#845=VERTEX_POINT('',#846);
#846=CARTESIAN_POINT('',(-1.725,-0.375,0.));
#847=CIRCLE('',#848,0.125);
#848=AXIS2_PLACEMENT_3D('',#849,#13,#51);
#849=CARTESIAN_POINT('',(-1.725,-0.25,0.));
#850=ORIENTED_EDGE('',*,*,#851,.F.);
#851=EDGE_CURVE('',#97,#845,#852,.T.);
#852=LINE('',#98,#787);
#853=ORIENTED_EDGE('',*,*,#96,.F.);
#854=ORIENTED_EDGE('',*,*,#855,.F.);
#855=EDGE_CURVE('',#856,#92,#858,.T.);
#856=VERTEX_POINT('',#857);
#857=CARTESIAN_POINT('',(-1.725,-0.625,0.));
#858=LINE('',#857,#775);
#859=ORIENTED_EDGE('',*,*,#860,.F.);
#860=EDGE_CURVE('',#861,#856,#863,.T.);
#861=VERTEX_POINT('',#862);
#862=CARTESIAN_POINT('',(-1.725,-0.875,0.));
#863=CIRCLE('',#864,0.125);
#864=AXIS2_PLACEMENT_3D('',#865,#13,#51);
#865=CARTESIAN_POINT('',(-1.725,-0.75,0.));
#866=ORIENTED_EDGE('',*,*,#867,.F.);
#867=EDGE_CURVE('',#78,#861,#868,.T.);
#868=LINE('',#79,#787);
#869=ORIENTED_EDGE('',*,*,#77,.F.);
#870=ORIENTED_EDGE('',*,*,#871,.F.);
#871=EDGE_CURVE('',#872,#73,#874,.T.);
#872=VERTEX_POINT('',#873);
#873=CARTESIAN_POINT('',(-1.725,-1.125,0.));
#874=LINE('',#873,#775);
#875=ORIENTED_EDGE('',*,*,#876,.F.);
#876=EDGE_CURVE('',#877,#872,#879,.T.);
#877=VERTEX_POINT('',#878);
#878=CARTESIAN_POINT('',(-1.725,-1.375,0.));
#879=CIRCLE('',#880,0.125);
#880=AXIS2_PLACEMENT_3D('',#881,#13,#51);
#881=CARTESIAN_POINT('',(-1.725,-1.25,0.));
#882=ORIENTED_EDGE('',*,*,#883,.F.);
#883=EDGE_CURVE('',#59,#877,#884,.T.);
#884=LINE('',#60,#787);
#885=ORIENTED_EDGE('',*,*,#58,.F.);
#886=ORIENTED_EDGE('',*,*,#887,.F.);
#887=EDGE_CURVE('',#888,#54,#890,.T.);
#888=VERTEX_POINT('',#889);
#889=CARTESIAN_POINT('',(-1.725,-1.625,0.));
#890=LINE('',#889,#775);
#891=ORIENTED_EDGE('',*,*,#892,.F.);
#892=EDGE_CURVE('',#893,#888,#895,.T.);
#893=VERTEX_POINT('',#894);
#894=CARTESIAN_POINT('',(-1.725,-1.875,0.));
#895=CIRCLE('',#896,0.125);
#896=AXIS2_PLACEMENT_3D('',#897,#13,#51);
#897=CARTESIAN_POINT('',(-1.725,-1.75,0.));
#898=ORIENTED_EDGE('',*,*,#899,.F.);
#899=EDGE_CURVE('',#37,#893,#900,.T.);
#900=LINE('',#38,#787);
#901=FACE_BOUND('',#902,.F.);
#902=EDGE_LOOP('',(#903,#910,#917,#922));
#903=ORIENTED_EDGE('',*,*,#904,.F.);
#904=EDGE_CURVE('',#905,#907,#909,.T.);
#905=VERTEX_POINT('',#906);
#906=CARTESIAN_POINT('',(-1.325,-1.825,0.));
#907=VERTEX_POINT('',#908);
#908=CARTESIAN_POINT('',(1.325,-1.825,0.));
#909=LINE('',#906,#208);
#910=ORIENTED_EDGE('',*,*,#911,.F.);
#911=EDGE_CURVE('',#912,#905,#914,.T.);
#912=VERTEX_POINT('',#913);
#913=CARTESIAN_POINT('',(-1.325,1.825,0.));
#914=LINE('',#913,#915);
#915=VECTOR('',#916,1.);
#916=DIRECTION('',(0.,-1.,0.));
#917=ORIENTED_EDGE('',*,*,#918,.F.);
#918=EDGE_CURVE('',#919,#912,#921,.T.);
#919=VERTEX_POINT('',#920);
#920=CARTESIAN_POINT('',(1.325,1.825,0.));
#921=LINE('',#920,#256);
#922=ORIENTED_EDGE('',*,*,#923,.F.);
#923=EDGE_CURVE('',#907,#919,#924,.T.);
#924=LINE('',#908,#27);
#925=PLANE('',#926);
#926=AXIS2_PLACEMENT_3D('',#32,#13,#199);
#927=ADVANCED_FACE('',(#928),#936,.F.);
#928=FACE_BOUND('',#929,.F.);
#929=EDGE_LOOP('',(#930,#931,#932,#933));
#930=ORIENTED_EDGE('',*,*,#186,.T.);
#931=ORIENTED_EDGE('',*,*,#181,.T.);
#932=ORIENTED_EDGE('',*,*,#176,.F.);
#933=ORIENTED_EDGE('',*,*,#934,.F.);
#934=EDGE_CURVE('',#187,#173,#935,.T.);
#935=LINE('',#188,#50);
#936=PLANE('',#937);
#937=AXIS2_PLACEMENT_3D('',#188,#938,#51);
#938=DIRECTION('',(1.,-1.110223024625E-16,0.));
#939=ADVANCED_FACE('',(#940),#948,.F.);
#940=FACE_BOUND('',#941,.F.);
#941=EDGE_LOOP('',(#942,#943,#944,#945));
#942=ORIENTED_EDGE('',*,*,#167,.T.);
#943=ORIENTED_EDGE('',*,*,#162,.T.);
#944=ORIENTED_EDGE('',*,*,#157,.F.);
#945=ORIENTED_EDGE('',*,*,#946,.F.);
#946=EDGE_CURVE('',#168,#154,#947,.T.);
#947=LINE('',#169,#50);
#948=PLANE('',#949);
#949=AXIS2_PLACEMENT_3D('',#169,#938,#51);
#950=ADVANCED_FACE('',(#951),#959,.F.);
#951=FACE_BOUND('',#952,.F.);
#952=EDGE_LOOP('',(#953,#954,#955,#956));
#953=ORIENTED_EDGE('',*,*,#148,.T.);
#954=ORIENTED_EDGE('',*,*,#143,.T.);
#955=ORIENTED_EDGE('',*,*,#138,.F.);
#956=ORIENTED_EDGE('',*,*,#957,.F.);
#957=EDGE_CURVE('',#149,#135,#958,.T.);
#958=LINE('',#150,#50);
#959=PLANE('',#960);
#960=AXIS2_PLACEMENT_3D('',#150,#938,#51);
#961=ADVANCED_FACE('',(#962),#970,.F.);
#962=FACE_BOUND('',#963,.F.);
#963=EDGE_LOOP('',(#964,#965,#966,#967));
#964=ORIENTED_EDGE('',*,*,#129,.T.);
#965=ORIENTED_EDGE('',*,*,#124,.T.);
#966=ORIENTED_EDGE('',*,*,#119,.F.);
#967=ORIENTED_EDGE('',*,*,#968,.F.);
#968=EDGE_CURVE('',#130,#116,#969,.T.);
#969=LINE('',#131,#50);
#970=PLANE('',#971);
#971=AXIS2_PLACEMENT_3D('',#131,#938,#51);
#972=ADVANCED_FACE('',(#973),#981,.F.);
#973=FACE_BOUND('',#974,.F.);
#974=EDGE_LOOP('',(#975,#976,#977,#978));
#975=ORIENTED_EDGE('',*,*,#110,.T.);
#976=ORIENTED_EDGE('',*,*,#105,.T.);
#977=ORIENTED_EDGE('',*,*,#100,.F.);
#978=ORIENTED_EDGE('',*,*,#979,.F.);
#979=EDGE_CURVE('',#111,#97,#980,.T.);
#980=LINE('',#112,#50);
#981=PLANE('',#982);
#982=AXIS2_PLACEMENT_3D('',#112,#938,#51);
#983=ADVANCED_FACE('',(#984),#992,.F.);
#984=FACE_BOUND('',#985,.F.);
#985=EDGE_LOOP('',(#986,#987,#988,#989));
#986=ORIENTED_EDGE('',*,*,#91,.T.);
#987=ORIENTED_EDGE('',*,*,#86,.T.);
#988=ORIENTED_EDGE('',*,*,#81,.F.);
#989=ORIENTED_EDGE('',*,*,#990,.F.);
#990=EDGE_CURVE('',#92,#78,#991,.T.);
#991=LINE('',#93,#50);
#992=PLANE('',#993);
#993=AXIS2_PLACEMENT_3D('',#93,#938,#51);
#994=ADVANCED_FACE('',(#995),#1003,.F.);
#995=FACE_BOUND('',#996,.F.);
#996=EDGE_LOOP('',(#997,#998,#999,#1000));
#997=ORIENTED_EDGE('',*,*,#72,.T.);
#998=ORIENTED_EDGE('',*,*,#67,.T.);
#999=ORIENTED_EDGE('',*,*,#62,.F.);
#1000=ORIENTED_EDGE('',*,*,#1001,.F.);
#1001=EDGE_CURVE('',#73,#59,#1002,.T.);
#1002=LINE('',#74,#50);
#1003=PLANE('',#1004);
#1004=AXIS2_PLACEMENT_3D('',#74,#938,#51);
#1005=ADVANCED_FACE('',(#1006),#1014,.F.);
#1006=FACE_BOUND('',#1007,.F.);
#1007=EDGE_LOOP('',(#1008,#1009,#1010,#1011));
#1008=ORIENTED_EDGE('',*,*,#53,.T.);
#1009=ORIENTED_EDGE('',*,*,#46,.T.);
#1010=ORIENTED_EDGE('',*,*,#41,.F.);
#1011=ORIENTED_EDGE('',*,*,#1012,.F.);
#1012=EDGE_CURVE('',#54,#37,#1013,.T.);
#1013=LINE('',#55,#50);
#1014=PLANE('',#1015);
#1015=AXIS2_PLACEMENT_3D('',#55,#938,#51);
#1016=ADVANCED_FACE('',(#1017),#1109,.F.);
#1017=FACE_BOUND('',#1018,.F.);
#1018=EDGE_LOOP('',(#1019,#1020,#203,#1021,#1024,#1025,#1030,#1036,#1039,#1040,#1045,#1050,#1053,#1054,#1059,#1064,#1067,#1068,#1073,#1078,#1081,#1082,#1087,#1092,#1095,#1096,#1101,#1106));
#1019=ORIENTED_EDGE('',*,*,#363,.F.);
#1020=ORIENTED_EDGE('',*,*,#30,.T.);
#1021=ORIENTED_EDGE('',*,*,#1022,.F.);
#1022=EDGE_CURVE('',#497,#205,#1023,.T.);
#1023=LINE('',#498,#34);
#1024=ORIENTED_EDGE('',*,*,#496,.F.);
#1025=ORIENTED_EDGE('',*,*,#1026,.T.);
#1026=EDGE_CURVE('',#492,#1027,#1029,.T.);
#1027=VERTEX_POINT('',#1028);
#1028=CARTESIAN_POINT('',(1.375,-2.5,0.15));
#1029=LINE('',#493,#34);
#1030=ORIENTED_EDGE('',*,*,#1031,.F.);
#1031=EDGE_CURVE('',#1032,#1027,#1034,.T.);
#1032=VERTEX_POINT('',#1033);
#1033=CARTESIAN_POINT('',(1.125,-2.5,0.15));
#1034=LINE('',#1033,#1035);
#1035=VECTOR('',#382,1.);
#1036=ORIENTED_EDGE('',*,*,#1037,.F.);
#1037=EDGE_CURVE('',#476,#1032,#1038,.T.);
#1038=LINE('',#477,#34);
#1039=ORIENTED_EDGE('',*,*,#475,.F.);
#1040=ORIENTED_EDGE('',*,*,#1041,.T.);
#1041=EDGE_CURVE('',#471,#1042,#1044,.T.);
#1042=VERTEX_POINT('',#1043);
#1043=CARTESIAN_POINT('',(0.875,-2.5,0.15));
#1044=LINE('',#472,#34);
#1045=ORIENTED_EDGE('',*,*,#1046,.F.);
#1046=EDGE_CURVE('',#1047,#1042,#1049,.T.);
#1047=VERTEX_POINT('',#1048);
#1048=CARTESIAN_POINT('',(0.625,-2.5,0.15));
#1049=LINE('',#1048,#1035);
#1050=ORIENTED_EDGE('',*,*,#1051,.F.);
#1051=EDGE_CURVE('',#455,#1047,#1052,.T.);
#1052=LINE('',#456,#34);
#1053=ORIENTED_EDGE('',*,*,#454,.F.);
#1054=ORIENTED_EDGE('',*,*,#1055,.T.);
#1055=EDGE_CURVE('',#450,#1056,#1058,.T.);
#1056=VERTEX_POINT('',#1057);
#1057=CARTESIAN_POINT('',(0.375,-2.5,0.15));
#1058=LINE('',#451,#34);
#1059=ORIENTED_EDGE('',*,*,#1060,.F.);
#1060=EDGE_CURVE('',#1061,#1056,#1063,.T.);
#1061=VERTEX_POINT('',#1062);
#1062=CARTESIAN_POINT('',(0.125,-2.5,0.15));
#1063=LINE('',#1062,#1035);
#1064=ORIENTED_EDGE('',*,*,#1065,.F.);
#1065=EDGE_CURVE('',#434,#1061,#1066,.T.);
#1066=LINE('',#435,#34);
#1067=ORIENTED_EDGE('',*,*,#433,.F.);
#1068=ORIENTED_EDGE('',*,*,#1069,.T.);
#1069=EDGE_CURVE('',#429,#1070,#1072,.T.);
#1070=VERTEX_POINT('',#1071);
#1071=CARTESIAN_POINT('',(-0.125,-2.5,0.15));
#1072=LINE('',#430,#34);
#1073=ORIENTED_EDGE('',*,*,#1074,.F.);
#1074=EDGE_CURVE('',#1075,#1070,#1077,.T.);
#1075=VERTEX_POINT('',#1076);
#1076=CARTESIAN_POINT('',(-0.375,-2.5,0.15));
#1077=LINE('',#1076,#1035);
#1078=ORIENTED_EDGE('',*,*,#1079,.F.);
#1079=EDGE_CURVE('',#413,#1075,#1080,.T.);
#1080=LINE('',#414,#34);
#1081=ORIENTED_EDGE('',*,*,#412,.F.);
#1082=ORIENTED_EDGE('',*,*,#1083,.T.);
#1083=EDGE_CURVE('',#408,#1084,#1086,.T.);
#1084=VERTEX_POINT('',#1085);
#1085=CARTESIAN_POINT('',(-0.625,-2.5,0.15));
#1086=LINE('',#409,#34);
#1087=ORIENTED_EDGE('',*,*,#1088,.F.);
#1088=EDGE_CURVE('',#1089,#1084,#1091,.T.);
#1089=VERTEX_POINT('',#1090);
#1090=CARTESIAN_POINT('',(-0.875,-2.5,0.15));
#1091=LINE('',#1090,#1035);
#1092=ORIENTED_EDGE('',*,*,#1093,.F.);
#1093=EDGE_CURVE('',#392,#1089,#1094,.T.);
#1094=LINE('',#393,#34);
#1095=ORIENTED_EDGE('',*,*,#391,.F.);
#1096=ORIENTED_EDGE('',*,*,#1097,.T.);
#1097=EDGE_CURVE('',#385,#1098,#1100,.T.);
#1098=VERTEX_POINT('',#1099);
#1099=CARTESIAN_POINT('',(-1.125,-2.5,0.15));
#1100=LINE('',#386,#34);
#1101=ORIENTED_EDGE('',*,*,#1102,.F.);
#1102=EDGE_CURVE('',#1103,#1098,#1105,.T.);
#1103=VERTEX_POINT('',#1104);
#1104=CARTESIAN_POINT('',(-1.375,-2.5,0.15));
#1105=LINE('',#1104,#1035);
#1106=ORIENTED_EDGE('',*,*,#1107,.F.);
#1107=EDGE_CURVE('',#364,#1103,#1108,.T.);
#1108=LINE('',#365,#34);
#1109=PLANE('',#1110);
#1110=AXIS2_PLACEMENT_3D('',#32,#28,#13);
#1111=ADVANCED_FACE('',(#1112),#1221,.T.);
#1112=FACE_BOUND('',#1113,.T.);
#1113=EDGE_LOOP('',(#1114,#1021,#499,#1115,#1120,#1126,#527,#1129,#1134,#1139,#548,#1142,#1147,#1152,#569,#1155,#1160,#1165,#590,#1168,#1173,#1178,#611,#1181,#1186,#1191,#632,#1194,#1199,#1204,#653,#1207,#1212,#1217,#674,#1220));
#1114=ORIENTED_EDGE('',*,*,#210,.F.);
#1115=ORIENTED_EDGE('',*,*,#1116,.T.);
#1116=EDGE_CURVE('',#501,#1117,#1119,.T.);
#1117=VERTEX_POINT('',#1118);
#1118=CARTESIAN_POINT('',(2.,-1.875,0.15));
#1119=LINE('',#502,#34);
#1120=ORIENTED_EDGE('',*,*,#1121,.T.);
#1121=EDGE_CURVE('',#1117,#1122,#1124,.T.);
#1122=VERTEX_POINT('',#1123);
#1123=CARTESIAN_POINT('',(2.,-1.625,0.15));
#1124=LINE('',#1118,#1125);
#1125=VECTOR('',#519,1.);
#1126=ORIENTED_EDGE('',*,*,#1127,.F.);
#1127=EDGE_CURVE('',#522,#1122,#1128,.T.);
#1128=LINE('',#523,#34);
#1129=ORIENTED_EDGE('',*,*,#1130,.T.);
#1130=EDGE_CURVE('',#529,#1131,#1133,.T.);
#1131=VERTEX_POINT('',#1132);
#1132=CARTESIAN_POINT('',(2.,-1.375,0.15));
#1133=LINE('',#530,#34);
#1134=ORIENTED_EDGE('',*,*,#1135,.T.);
#1135=EDGE_CURVE('',#1131,#1136,#1138,.T.);
#1136=VERTEX_POINT('',#1137);
#1137=CARTESIAN_POINT('',(2.,-1.125,0.15));
#1138=LINE('',#1132,#1125);
#1139=ORIENTED_EDGE('',*,*,#1140,.F.);
#1140=EDGE_CURVE('',#545,#1136,#1141,.T.);
#1141=LINE('',#546,#34);
#1142=ORIENTED_EDGE('',*,*,#1143,.T.);
#1143=EDGE_CURVE('',#550,#1144,#1146,.T.);
#1144=VERTEX_POINT('',#1145);
#1145=CARTESIAN_POINT('',(2.,-0.875,0.15));
#1146=LINE('',#551,#34);
#1147=ORIENTED_EDGE('',*,*,#1148,.T.);
#1148=EDGE_CURVE('',#1144,#1149,#1151,.T.);
#1149=VERTEX_POINT('',#1150);
#1150=CARTESIAN_POINT('',(2.,-0.625,0.15));
#1151=LINE('',#1145,#1125);
#1152=ORIENTED_EDGE('',*,*,#1153,.F.);
#1153=EDGE_CURVE('',#566,#1149,#1154,.T.);
#1154=LINE('',#567,#34);
#1155=ORIENTED_EDGE('',*,*,#1156,.T.);
#1156=EDGE_CURVE('',#571,#1157,#1159,.T.);
#1157=VERTEX_POINT('',#1158);
#1158=CARTESIAN_POINT('',(2.,-0.375,0.15));
#1159=LINE('',#572,#34);
#1160=ORIENTED_EDGE('',*,*,#1161,.T.);
#1161=EDGE_CURVE('',#1157,#1162,#1164,.T.);
#1162=VERTEX_POINT('',#1163);
#1163=CARTESIAN_POINT('',(2.,-0.125,0.15));
#1164=LINE('',#1158,#1125);
#1165=ORIENTED_EDGE('',*,*,#1166,.F.);
#1166=EDGE_CURVE('',#587,#1162,#1167,.T.);
#1167=LINE('',#588,#34);
#1168=ORIENTED_EDGE('',*,*,#1169,.T.);
#1169=EDGE_CURVE('',#592,#1170,#1172,.T.);
#1170=VERTEX_POINT('',#1171);
#1171=CARTESIAN_POINT('',(2.,0.125,0.15));
#1172=LINE('',#593,#34);
#1173=ORIENTED_EDGE('',*,*,#1174,.T.);
#1174=EDGE_CURVE('',#1170,#1175,#1177,.T.);
#1175=VERTEX_POINT('',#1176);
#1176=CARTESIAN_POINT('',(2.,0.375,0.15));
#1177=LINE('',#1171,#1125);
#1178=ORIENTED_EDGE('',*,*,#1179,.F.);
#1179=EDGE_CURVE('',#608,#1175,#1180,.T.);
#1180=LINE('',#609,#34);
#1181=ORIENTED_EDGE('',*,*,#1182,.T.);
#1182=EDGE_CURVE('',#613,#1183,#1185,.T.);
#1183=VERTEX_POINT('',#1184);
#1184=CARTESIAN_POINT('',(2.,0.625,0.15));
#1185=LINE('',#614,#34);
#1186=ORIENTED_EDGE('',*,*,#1187,.T.);
#1187=EDGE_CURVE('',#1183,#1188,#1190,.T.);
#1188=VERTEX_POINT('',#1189);
#1189=CARTESIAN_POINT('',(2.,0.875,0.15));
#1190=LINE('',#1184,#1125);
#1191=ORIENTED_EDGE('',*,*,#1192,.F.);
#1192=EDGE_CURVE('',#629,#1188,#1193,.T.);
#1193=LINE('',#630,#34);
#1194=ORIENTED_EDGE('',*,*,#1195,.T.);
#1195=EDGE_CURVE('',#634,#1196,#1198,.T.);
#1196=VERTEX_POINT('',#1197);
#1197=CARTESIAN_POINT('',(2.,1.125,0.15));
#1198=LINE('',#635,#34);
#1199=ORIENTED_EDGE('',*,*,#1200,.T.);
#1200=EDGE_CURVE('',#1196,#1201,#1203,.T.);
#1201=VERTEX_POINT('',#1202);
#1202=CARTESIAN_POINT('',(2.,1.375,0.15));
#1203=LINE('',#1197,#1125);
#1204=ORIENTED_EDGE('',*,*,#1205,.F.);
#1205=EDGE_CURVE('',#650,#1201,#1206,.T.);
#1206=LINE('',#651,#34);
#1207=ORIENTED_EDGE('',*,*,#1208,.T.);
#1208=EDGE_CURVE('',#655,#1209,#1211,.T.);
#1209=VERTEX_POINT('',#1210);
#1210=CARTESIAN_POINT('',(2.,1.625,0.15));
#1211=LINE('',#656,#34);
#1212=ORIENTED_EDGE('',*,*,#1213,.T.);
#1213=EDGE_CURVE('',#1209,#1214,#1216,.T.);
#1214=VERTEX_POINT('',#1215);
#1215=CARTESIAN_POINT('',(2.,1.875,0.15));
#1216=LINE('',#1210,#1125);
#1217=ORIENTED_EDGE('',*,*,#1218,.F.);
#1218=EDGE_CURVE('',#671,#1214,#1219,.T.);
#1219=LINE('',#672,#34);
#1220=ORIENTED_EDGE('',*,*,#238,.T.);
#1221=PLANE('',#1222);
#1222=AXIS2_PLACEMENT_3D('',#498,#199,#13);
#1223=ADVANCED_FACE('',(#1224),#1227,.T.);
#1224=FACE_BOUND('',#1225,.T.);
#1225=EDGE_LOOP('',(#1226));
#1226=ORIENTED_EDGE('',*,*,#220,.T.);
#1227=PLANE('',#1228);
#1228=AXIS2_PLACEMENT_3D('',#225,#13,#14);
#1229=ADVANCED_FACE('',(#1230),#1235,.F.);
#1230=FACE_BOUND('',#1231,.F.);
#1231=EDGE_LOOP('',(#343,#348,#353,#1232));
#1232=ORIENTED_EDGE('',*,*,#1233,.F.);
#1233=EDGE_CURVE('',#341,#233,#1234,.T.);
#1234=LINE('',#342,#256);
#1235=PLANE('',#1236);
#1236=AXIS2_PLACEMENT_3D('',#342,#916,#257);
#1237=ADVANCED_FACE('',(#1238),#1243,.F.);
#1238=FACE_BOUND('',#1239,.F.);
#1239=EDGE_LOOP('',(#324,#329,#334,#1240));
#1240=ORIENTED_EDGE('',*,*,#1241,.F.);
#1241=EDGE_CURVE('',#322,#336,#1242,.T.);
#1242=LINE('',#323,#256);
#1243=PLANE('',#1244);
#1244=AXIS2_PLACEMENT_3D('',#323,#916,#257);
#1245=ADVANCED_FACE('',(#1246),#1251,.F.);
#1246=FACE_BOUND('',#1247,.F.);
#1247=EDGE_LOOP('',(#305,#310,#315,#1248));
#1248=ORIENTED_EDGE('',*,*,#1249,.F.);
#1249=EDGE_CURVE('',#303,#317,#1250,.T.);
#1250=LINE('',#304,#256);
#1251=PLANE('',#1252);
#1252=AXIS2_PLACEMENT_3D('',#304,#916,#257);
#1253=ADVANCED_FACE('',(#1254),#1259,.F.);
#1254=FACE_BOUND('',#1255,.F.);
#1255=EDGE_LOOP('',(#286,#291,#296,#1256));
#1256=ORIENTED_EDGE('',*,*,#1257,.F.);
#1257=EDGE_CURVE('',#284,#298,#1258,.T.);
#1258=LINE('',#285,#256);
#1259=PLANE('',#1260);
#1260=AXIS2_PLACEMENT_3D('',#285,#916,#257);
#1261=ADVANCED_FACE('',(#1262),#1267,.F.);
#1262=FACE_BOUND('',#1263,.F.);
#1263=EDGE_LOOP('',(#267,#272,#277,#1264));
#1264=ORIENTED_EDGE('',*,*,#1265,.F.);
#1265=EDGE_CURVE('',#265,#279,#1266,.T.);
#1266=LINE('',#266,#256);
#1267=PLANE('',#1268);
#1268=AXIS2_PLACEMENT_3D('',#266,#916,#257);
#1269=ADVANCED_FACE('',(#1270),#1275,.F.);
#1270=FACE_BOUND('',#1271,.F.);
#1271=EDGE_LOOP('',(#246,#251,#258,#1272));
#1272=ORIENTED_EDGE('',*,*,#1273,.F.);
#1273=EDGE_CURVE('',#244,#260,#1274,.T.);
#1274=LINE('',#245,#256);
#1275=PLANE('',#1276);
#1276=AXIS2_PLACEMENT_3D('',#245,#916,#257);
#1277=ADVANCED_FACE('',(#1278),#1284,.F.);
#1278=FACE_BOUND('',#1279,.F.);
#1279=EDGE_LOOP('',(#1280,#1281,#1282,#1283));
#1280=ORIENTED_EDGE('',*,*,#892,.T.);
#1281=ORIENTED_EDGE('',*,*,#887,.T.);
#1282=ORIENTED_EDGE('',*,*,#1012,.T.);
#1283=ORIENTED_EDGE('',*,*,#899,.T.);
#1284=PLANE('',#1285);
#1285=AXIS2_PLACEMENT_3D('',#1286,#13,#1287);
#1286=CARTESIAN_POINT('',(-1.824839749899,-1.75,0.));
#1287=DIRECTION('',(1.110223024625E-16,1.,0.));
#1288=ADVANCED_FACE('',(#1289),#1297,.F.);
#1289=FACE_BOUND('',#1290,.F.);
#1290=EDGE_LOOP('',(#1291,#1292,#1293,#1296));
#1291=ORIENTED_EDGE('',*,*,#375,.T.);
#1292=ORIENTED_EDGE('',*,*,#368,.T.);
#1293=ORIENTED_EDGE('',*,*,#1294,.T.);
#1294=EDGE_CURVE('',#364,#385,#1295,.T.);
#1295=LINE('',#365,#1035);
#1296=ORIENTED_EDGE('',*,*,#384,.T.);
#1297=PLANE('',#1298);
#1298=AXIS2_PLACEMENT_3D('',#1299,#13,#1300);
#1299=CARTESIAN_POINT('',(-1.25,-2.324839749899,0.));
#1300=DIRECTION('',(-1.,1.224646799147E-16,0.));
#1301=ADVANCED_FACE('',(#1302),#1308,.F.);
#1302=FACE_BOUND('',#1303,.F.);
#1303=EDGE_LOOP('',(#1304,#1305,#1306,#1307));
#1304=ORIENTED_EDGE('',*,*,#876,.T.);
#1305=ORIENTED_EDGE('',*,*,#871,.T.);
#1306=ORIENTED_EDGE('',*,*,#1001,.T.);
#1307=ORIENTED_EDGE('',*,*,#883,.T.);
#1308=PLANE('',#1309);
#1309=AXIS2_PLACEMENT_3D('',#1310,#13,#1287);
#1310=CARTESIAN_POINT('',(-1.824839749899,-1.25,0.));
#1311=ADVANCED_FACE('',(#1312),#1320,.F.);
#1312=FACE_BOUND('',#1313,.F.);
#1313=EDGE_LOOP('',(#1314,#1315,#1316,#1319));
#1314=ORIENTED_EDGE('',*,*,#400,.T.);
#1315=ORIENTED_EDGE('',*,*,#395,.T.);
#1316=ORIENTED_EDGE('',*,*,#1317,.T.);
#1317=EDGE_CURVE('',#392,#408,#1318,.T.);
#1318=LINE('',#393,#1035);
#1319=ORIENTED_EDGE('',*,*,#407,.T.);
#1320=PLANE('',#1321);
#1321=AXIS2_PLACEMENT_3D('',#1322,#13,#1300);
#1322=CARTESIAN_POINT('',(-0.75,-2.324839749899,0.));
#1323=ADVANCED_FACE('',(#1324),#1330,.F.);
#1324=FACE_BOUND('',#1325,.F.);
#1325=EDGE_LOOP('',(#1326,#1327,#1328,#1329));
#1326=ORIENTED_EDGE('',*,*,#860,.T.);
#1327=ORIENTED_EDGE('',*,*,#855,.T.);
#1328=ORIENTED_EDGE('',*,*,#990,.T.);
#1329=ORIENTED_EDGE('',*,*,#867,.T.);
#1330=PLANE('',#1331);
#1331=AXIS2_PLACEMENT_3D('',#1332,#13,#1287);
#1332=CARTESIAN_POINT('',(-1.824839749899,-0.75,0.));
#1333=ADVANCED_FACE('',(#1334),#1342,.F.);
#1334=FACE_BOUND('',#1335,.F.);
#1335=EDGE_LOOP('',(#1336,#1337,#1338,#1341));
#1336=ORIENTED_EDGE('',*,*,#421,.T.);
#1337=ORIENTED_EDGE('',*,*,#416,.T.);
#1338=ORIENTED_EDGE('',*,*,#1339,.T.);
#1339=EDGE_CURVE('',#413,#429,#1340,.T.);
#1340=LINE('',#414,#1035);
#1341=ORIENTED_EDGE('',*,*,#428,.T.);
#1342=PLANE('',#1343);
#1343=AXIS2_PLACEMENT_3D('',#1344,#13,#1300);
#1344=CARTESIAN_POINT('',(-0.25,-2.324839749899,0.));
#1345=ADVANCED_FACE('',(#1346),#1352,.F.);
#1346=FACE_BOUND('',#1347,.F.);
#1347=EDGE_LOOP('',(#1348,#1349,#1350,#1351));
#1348=ORIENTED_EDGE('',*,*,#844,.T.);
#1349=ORIENTED_EDGE('',*,*,#839,.T.);
#1350=ORIENTED_EDGE('',*,*,#979,.T.);
#1351=ORIENTED_EDGE('',*,*,#851,.T.);
#1352=PLANE('',#1353);
#1353=AXIS2_PLACEMENT_3D('',#1354,#13,#1287);
#1354=CARTESIAN_POINT('',(-1.824839749899,-0.25,0.));
#1355=ADVANCED_FACE('',(#1356),#1364,.F.);
#1356=FACE_BOUND('',#1357,.F.);
#1357=EDGE_LOOP('',(#1358,#1359,#1360,#1363));
#1358=ORIENTED_EDGE('',*,*,#442,.T.);
#1359=ORIENTED_EDGE('',*,*,#437,.T.);
#1360=ORIENTED_EDGE('',*,*,#1361,.T.);
#1361=EDGE_CURVE('',#434,#450,#1362,.T.);
#1362=LINE('',#435,#1035);
#1363=ORIENTED_EDGE('',*,*,#449,.T.);
#1364=PLANE('',#1365);
#1365=AXIS2_PLACEMENT_3D('',#1366,#13,#1300);
#1366=CARTESIAN_POINT('',(0.25,-2.324839749899,0.));
#1367=ADVANCED_FACE('',(#1368),#1374,.F.);
#1368=FACE_BOUND('',#1369,.F.);
#1369=EDGE_LOOP('',(#1370,#1371,#1372,#1373));
#1370=ORIENTED_EDGE('',*,*,#828,.T.);
#1371=ORIENTED_EDGE('',*,*,#823,.T.);
#1372=ORIENTED_EDGE('',*,*,#968,.T.);
#1373=ORIENTED_EDGE('',*,*,#835,.T.);
#1374=PLANE('',#1375);
#1375=AXIS2_PLACEMENT_3D('',#1376,#13,#1287);
#1376=CARTESIAN_POINT('',(-1.824839749899,0.25,0.));
#1377=ADVANCED_FACE('',(#1378),#1386,.F.);
#1378=FACE_BOUND('',#1379,.F.);
#1379=EDGE_LOOP('',(#1380,#1381,#1382,#1385));
#1380=ORIENTED_EDGE('',*,*,#463,.T.);
#1381=ORIENTED_EDGE('',*,*,#458,.T.);
#1382=ORIENTED_EDGE('',*,*,#1383,.T.);
#1383=EDGE_CURVE('',#455,#471,#1384,.T.);
#1384=LINE('',#456,#1035);
#1385=ORIENTED_EDGE('',*,*,#470,.T.);
#1386=PLANE('',#1387);
#1387=AXIS2_PLACEMENT_3D('',#1388,#13,#1300);
#1388=CARTESIAN_POINT('',(0.75,-2.324839749899,0.));
#1389=ADVANCED_FACE('',(#1390),#1396,.F.);
#1390=FACE_BOUND('',#1391,.F.);
#1391=EDGE_LOOP('',(#1392,#1393,#1394,#1395));
#1392=ORIENTED_EDGE('',*,*,#812,.T.);
#1393=ORIENTED_EDGE('',*,*,#807,.T.);
#1394=ORIENTED_EDGE('',*,*,#957,.T.);
#1395=ORIENTED_EDGE('',*,*,#819,.T.);
#1396=PLANE('',#1397);
#1397=AXIS2_PLACEMENT_3D('',#1398,#13,#1287);
#1398=CARTESIAN_POINT('',(-1.824839749899,0.75,0.));
#1399=ADVANCED_FACE('',(#1400),#1408,.F.);
#1400=FACE_BOUND('',#1401,.F.);
#1401=EDGE_LOOP('',(#1402,#1403,#1404,#1407));
#1402=ORIENTED_EDGE('',*,*,#484,.T.);
#1403=ORIENTED_EDGE('',*,*,#479,.T.);
#1404=ORIENTED_EDGE('',*,*,#1405,.T.);
#1405=EDGE_CURVE('',#476,#492,#1406,.T.);
#1406=LINE('',#477,#1035);
#1407=ORIENTED_EDGE('',*,*,#491,.T.);
#1408=PLANE('',#1409);
#1409=AXIS2_PLACEMENT_3D('',#1410,#13,#1300);
#1410=CARTESIAN_POINT('',(1.25,-2.324839749899,0.));
#1411=ADVANCED_FACE('',(#1412),#1418,.F.);
#1412=FACE_BOUND('',#1413,.F.);
#1413=EDGE_LOOP('',(#1414,#1415,#1416,#1417));
#1414=ORIENTED_EDGE('',*,*,#796,.T.);
#1415=ORIENTED_EDGE('',*,*,#791,.T.);
#1416=ORIENTED_EDGE('',*,*,#946,.T.);
#1417=ORIENTED_EDGE('',*,*,#803,.T.);
#1418=PLANE('',#1419);
#1419=AXIS2_PLACEMENT_3D('',#1420,#13,#1287);
#1420=CARTESIAN_POINT('',(-1.824839749899,1.25,0.));
#1421=ADVANCED_FACE('',(#1422),#1430,.F.);
#1422=FACE_BOUND('',#1423,.F.);
#1423=EDGE_LOOP('',(#1424,#1425,#1426,#1429));
#1424=ORIENTED_EDGE('',*,*,#512,.T.);
#1425=ORIENTED_EDGE('',*,*,#505,.T.);
#1426=ORIENTED_EDGE('',*,*,#1427,.T.);
#1427=EDGE_CURVE('',#501,#522,#1428,.T.);
#1428=LINE('',#502,#1125);
#1429=ORIENTED_EDGE('',*,*,#521,.T.);
#1430=PLANE('',#1431);
#1431=AXIS2_PLACEMENT_3D('',#1432,#13,#1433);
#1432=CARTESIAN_POINT('',(1.824839749899,-1.75,0.));
#1433=DIRECTION('',(-2.22044604925E-16,-1.,0.));
#1434=ADVANCED_FACE('',(#1435),#1441,.F.);
#1435=FACE_BOUND('',#1436,.F.);
#1436=EDGE_LOOP('',(#1437,#1438,#1439,#1440));
#1437=ORIENTED_EDGE('',*,*,#778,.T.);
#1438=ORIENTED_EDGE('',*,*,#771,.T.);
#1439=ORIENTED_EDGE('',*,*,#934,.T.);
#1440=ORIENTED_EDGE('',*,*,#785,.T.);
#1441=PLANE('',#1442);
#1442=AXIS2_PLACEMENT_3D('',#1443,#13,#1287);
#1443=CARTESIAN_POINT('',(-1.824839749899,1.75,0.));
#1444=ADVANCED_FACE('',(#1445),#1453,.F.);
#1445=FACE_BOUND('',#1446,.F.);
#1446=EDGE_LOOP('',(#1447,#1448,#1449,#1452));
#1447=ORIENTED_EDGE('',*,*,#537,.T.);
#1448=ORIENTED_EDGE('',*,*,#532,.T.);
#1449=ORIENTED_EDGE('',*,*,#1450,.T.);
#1450=EDGE_CURVE('',#529,#545,#1451,.T.);
#1451=LINE('',#530,#1125);
#1452=ORIENTED_EDGE('',*,*,#544,.T.);
#1453=PLANE('',#1454);
#1454=AXIS2_PLACEMENT_3D('',#1455,#13,#1433);
#1455=CARTESIAN_POINT('',(1.824839749899,-1.25,0.));
#1456=ADVANCED_FACE('',(#1457),#1463,.F.);
#1457=FACE_BOUND('',#1458,.F.);
#1458=EDGE_LOOP('',(#1459,#1460,#1461,#1462));
#1459=ORIENTED_EDGE('',*,*,#760,.T.);
#1460=ORIENTED_EDGE('',*,*,#755,.T.);
#1461=ORIENTED_EDGE('',*,*,#1233,.T.);
#1462=ORIENTED_EDGE('',*,*,#767,.T.);
#1463=PLANE('',#1464);
#1464=AXIS2_PLACEMENT_3D('',#1465,#13,#14);
#1465=CARTESIAN_POINT('',(-1.25,2.324839749899,0.));
#1466=ADVANCED_FACE('',(#1467),#1475,.F.);
#1467=FACE_BOUND('',#1468,.F.);
#1468=EDGE_LOOP('',(#1469,#1470,#1471,#1474));
#1469=ORIENTED_EDGE('',*,*,#558,.T.);
#1470=ORIENTED_EDGE('',*,*,#553,.T.);
#1471=ORIENTED_EDGE('',*,*,#1472,.T.);
#1472=EDGE_CURVE('',#550,#566,#1473,.T.);
#1473=LINE('',#551,#1125);
#1474=ORIENTED_EDGE('',*,*,#565,.T.);
#1475=PLANE('',#1476);
#1476=AXIS2_PLACEMENT_3D('',#1477,#13,#1433);
#1477=CARTESIAN_POINT('',(1.824839749899,-0.75,0.));
#1478=ADVANCED_FACE('',(#1479),#1485,.F.);
#1479=FACE_BOUND('',#1480,.F.);
#1480=EDGE_LOOP('',(#1481,#1482,#1483,#1484));
#1481=ORIENTED_EDGE('',*,*,#745,.T.);
#1482=ORIENTED_EDGE('',*,*,#740,.T.);
#1483=ORIENTED_EDGE('',*,*,#1241,.T.);
#1484=ORIENTED_EDGE('',*,*,#752,.T.);
#1485=PLANE('',#1486);
#1486=AXIS2_PLACEMENT_3D('',#1487,#13,#14);
#1487=CARTESIAN_POINT('',(-0.75,2.324839749899,0.));
#1488=ADVANCED_FACE('',(#1489),#1497,.F.);
#1489=FACE_BOUND('',#1490,.F.);
#1490=EDGE_LOOP('',(#1491,#1492,#1493,#1496));
#1491=ORIENTED_EDGE('',*,*,#579,.T.);
#1492=ORIENTED_EDGE('',*,*,#574,.T.);
#1493=ORIENTED_EDGE('',*,*,#1494,.T.);
#1494=EDGE_CURVE('',#571,#587,#1495,.T.);
#1495=LINE('',#572,#1125);
#1496=ORIENTED_EDGE('',*,*,#586,.T.);
#1497=PLANE('',#1498);
#1498=AXIS2_PLACEMENT_3D('',#1499,#13,#1433);
#1499=CARTESIAN_POINT('',(1.824839749899,-0.25,0.));
#1500=ADVANCED_FACE('',(#1501),#1507,.F.);
#1501=FACE_BOUND('',#1502,.F.);
#1502=EDGE_LOOP('',(#1503,#1504,#1505,#1506));
#1503=ORIENTED_EDGE('',*,*,#730,.T.);
#1504=ORIENTED_EDGE('',*,*,#725,.T.);
#1505=ORIENTED_EDGE('',*,*,#1249,.T.);
#1506=ORIENTED_EDGE('',*,*,#737,.T.);
#1507=PLANE('',#1508);
#1508=AXIS2_PLACEMENT_3D('',#1509,#13,#14);
#1509=CARTESIAN_POINT('',(-0.25,2.324839749899,0.));
#1510=ADVANCED_FACE('',(#1511),#1519,.F.);
#1511=FACE_BOUND('',#1512,.F.);
#1512=EDGE_LOOP('',(#1513,#1514,#1515,#1518));
#1513=ORIENTED_EDGE('',*,*,#600,.T.);
#1514=ORIENTED_EDGE('',*,*,#595,.T.);
#1515=ORIENTED_EDGE('',*,*,#1516,.T.);
#1516=EDGE_CURVE('',#592,#608,#1517,.T.);
#1517=LINE('',#593,#1125);
#1518=ORIENTED_EDGE('',*,*,#607,.T.);
#1519=PLANE('',#1520);
#1520=AXIS2_PLACEMENT_3D('',#1521,#13,#1433);
#1521=CARTESIAN_POINT('',(1.824839749899,0.25,0.));
#1522=ADVANCED_FACE('',(#1523),#1529,.F.);
#1523=FACE_BOUND('',#1524,.F.);
#1524=EDGE_LOOP('',(#1525,#1526,#1527,#1528));
#1525=ORIENTED_EDGE('',*,*,#715,.T.);
#1526=ORIENTED_EDGE('',*,*,#710,.T.);
#1527=ORIENTED_EDGE('',*,*,#1257,.T.);
#1528=ORIENTED_EDGE('',*,*,#722,.T.);
#1529=PLANE('',#1530);
#1530=AXIS2_PLACEMENT_3D('',#1531,#13,#14);
#1531=CARTESIAN_POINT('',(0.25,2.324839749899,0.));
#1532=ADVANCED_FACE('',(#1533),#1541,.F.);
#1533=FACE_BOUND('',#1534,.F.);
#1534=EDGE_LOOP('',(#1535,#1536,#1537,#1540));
#1535=ORIENTED_EDGE('',*,*,#621,.T.);
#1536=ORIENTED_EDGE('',*,*,#616,.T.);
#1537=ORIENTED_EDGE('',*,*,#1538,.T.);
#1538=EDGE_CURVE('',#613,#629,#1539,.T.);
#1539=LINE('',#614,#1125);
#1540=ORIENTED_EDGE('',*,*,#628,.T.);
#1541=PLANE('',#1542);
#1542=AXIS2_PLACEMENT_3D('',#1543,#13,#1433);
#1543=CARTESIAN_POINT('',(1.824839749899,0.75,0.));
#1544=ADVANCED_FACE('',(#1545),#1551,.F.);
#1545=FACE_BOUND('',#1546,.F.);
#1546=EDGE_LOOP('',(#1547,#1548,#1549,#1550));
#1547=ORIENTED_EDGE('',*,*,#700,.T.);
#1548=ORIENTED_EDGE('',*,*,#695,.T.);
#1549=ORIENTED_EDGE('',*,*,#1265,.T.);
#1550=ORIENTED_EDGE('',*,*,#707,.T.);
#1551=PLANE('',#1552);
#1552=AXIS2_PLACEMENT_3D('',#1553,#13,#14);
#1553=CARTESIAN_POINT('',(0.75,2.324839749899,0.));
#1554=ADVANCED_FACE('',(#1555),#1563,.F.);
#1555=FACE_BOUND('',#1556,.F.);
#1556=EDGE_LOOP('',(#1557,#1558,#1559,#1562));
#1557=ORIENTED_EDGE('',*,*,#642,.T.);
#1558=ORIENTED_EDGE('',*,*,#637,.T.);
#1559=ORIENTED_EDGE('',*,*,#1560,.T.);
#1560=EDGE_CURVE('',#634,#650,#1561,.T.);
#1561=LINE('',#635,#1125);
#1562=ORIENTED_EDGE('',*,*,#649,.T.);
#1563=PLANE('',#1564);
#1564=AXIS2_PLACEMENT_3D('',#1565,#13,#1433);
#1565=CARTESIAN_POINT('',(1.824839749899,1.25,0.));
#1566=ADVANCED_FACE('',(#1567),#1573,.F.);
#1567=FACE_BOUND('',#1568,.F.);
#1568=EDGE_LOOP('',(#1569,#1570,#1571,#1572));
#1569=ORIENTED_EDGE('',*,*,#682,.T.);
#1570=ORIENTED_EDGE('',*,*,#677,.T.);
#1571=ORIENTED_EDGE('',*,*,#1273,.T.);
#1572=ORIENTED_EDGE('',*,*,#690,.T.);
#1573=PLANE('',#1574);
#1574=AXIS2_PLACEMENT_3D('',#1575,#13,#14);
#1575=CARTESIAN_POINT('',(1.25,2.324839749899,0.));
#1576=ADVANCED_FACE('',(#1577),#1585,.F.);
#1577=FACE_BOUND('',#1578,.F.);
#1578=EDGE_LOOP('',(#1579,#1580,#1581,#1584));
#1579=ORIENTED_EDGE('',*,*,#663,.T.);
#1580=ORIENTED_EDGE('',*,*,#658,.T.);
#1581=ORIENTED_EDGE('',*,*,#1582,.T.);
#1582=EDGE_CURVE('',#655,#671,#1583,.T.);
#1583=LINE('',#656,#1125);
#1584=ORIENTED_EDGE('',*,*,#670,.T.);
#1585=PLANE('',#1586);
#1586=AXIS2_PLACEMENT_3D('',#1587,#13,#1433);
#1587=CARTESIAN_POINT('',(1.824839749899,1.75,0.));
#1588=ADVANCED_FACE('',(#1589),#1595,.F.);
#1589=FACE_BOUND('',#1590,.F.);
#1590=EDGE_LOOP('',(#1591,#1592,#1593,#1594));
#1591=ORIENTED_EDGE('',*,*,#904,.T.);
#1592=ORIENTED_EDGE('',*,*,#923,.T.);
#1593=ORIENTED_EDGE('',*,*,#918,.T.);
#1594=ORIENTED_EDGE('',*,*,#911,.T.);
#1595=PLANE('',#1596);
#1596=AXIS2_PLACEMENT_3D('',#12,#13,#199);
#1597=ADVANCED_FACE('',(#1598),#1604,.F.);
#1598=FACE_BOUND('',#1599,.F.);
#1599=EDGE_LOOP('',(#1600,#1601,#1602,#1603));
#1600=ORIENTED_EDGE('',*,*,#1107,.T.);
#1601=ORIENTED_EDGE('',*,*,#1102,.T.);
#1602=ORIENTED_EDGE('',*,*,#1097,.F.);
#1603=ORIENTED_EDGE('',*,*,#1294,.F.);
#1604=PLANE('',#1605);
#1605=AXIS2_PLACEMENT_3D('',#365,#1606,#382);
#1606=DIRECTION('',(1.224646799147E-16,1.,0.));
#1607=ADVANCED_FACE('',(#1608),#1614,.F.);
#1608=FACE_BOUND('',#1609,.F.);
#1609=EDGE_LOOP('',(#1610,#1611,#1612,#1613));
#1610=ORIENTED_EDGE('',*,*,#1093,.T.);
#1611=ORIENTED_EDGE('',*,*,#1088,.T.);
#1612=ORIENTED_EDGE('',*,*,#1083,.F.);
#1613=ORIENTED_EDGE('',*,*,#1317,.F.);
#1614=PLANE('',#1615);
#1615=AXIS2_PLACEMENT_3D('',#393,#1606,#382);
#1616=ADVANCED_FACE('',(#1617),#1623,.F.);
#1617=FACE_BOUND('',#1618,.F.);
#1618=EDGE_LOOP('',(#1619,#1620,#1621,#1622));
#1619=ORIENTED_EDGE('',*,*,#1079,.T.);
#1620=ORIENTED_EDGE('',*,*,#1074,.T.);
#1621=ORIENTED_EDGE('',*,*,#1069,.F.);
#1622=ORIENTED_EDGE('',*,*,#1339,.F.);
#1623=PLANE('',#1624);
#1624=AXIS2_PLACEMENT_3D('',#414,#1606,#382);
#1625=ADVANCED_FACE('',(#1626),#1632,.F.);
#1626=FACE_BOUND('',#1627,.F.);
#1627=EDGE_LOOP('',(#1628,#1629,#1630,#1631));
#1628=ORIENTED_EDGE('',*,*,#1065,.T.);
#1629=ORIENTED_EDGE('',*,*,#1060,.T.);
#1630=ORIENTED_EDGE('',*,*,#1055,.F.);
#1631=ORIENTED_EDGE('',*,*,#1361,.F.);
#1632=PLANE('',#1633);
#1633=AXIS2_PLACEMENT_3D('',#435,#1606,#382);
#1634=ADVANCED_FACE('',(#1635),#1641,.F.);
#1635=FACE_BOUND('',#1636,.F.);
#1636=EDGE_LOOP('',(#1637,#1638,#1639,#1640));
#1637=ORIENTED_EDGE('',*,*,#1051,.T.);
#1638=ORIENTED_EDGE('',*,*,#1046,.T.);
#1639=ORIENTED_EDGE('',*,*,#1041,.F.);
#1640=ORIENTED_EDGE('',*,*,#1383,.F.);
#1641=PLANE('',#1642);
#1642=AXIS2_PLACEMENT_3D('',#456,#1606,#382);
#1643=ADVANCED_FACE('',(#1644),#1650,.F.);
#1644=FACE_BOUND('',#1645,.F.);
#1645=EDGE_LOOP('',(#1646,#1647,#1648,#1649));
#1646=ORIENTED_EDGE('',*,*,#1037,.T.);
#1647=ORIENTED_EDGE('',*,*,#1031,.T.);
#1648=ORIENTED_EDGE('',*,*,#1026,.F.);
#1649=ORIENTED_EDGE('',*,*,#1405,.F.);
#1650=PLANE('',#1651);
#1651=AXIS2_PLACEMENT_3D('',#477,#1606,#382);
#1652=ADVANCED_FACE('',(#1653),#1656,.F.);
#1653=FACE_BOUND('',#1654,.F.);
#1654=EDGE_LOOP('',(#1207,#1212,#1217,#1655));
#1655=ORIENTED_EDGE('',*,*,#1582,.F.);
#1656=PLANE('',#1657);
#1657=AXIS2_PLACEMENT_3D('',#656,#1658,#519);
#1658=DIRECTION('',(-1.,2.22044604925E-16,0.));
#1659=ADVANCED_FACE('',(#1660),#1663,.F.);
#1660=FACE_BOUND('',#1661,.F.);
#1661=EDGE_LOOP('',(#1194,#1199,#1204,#1662));
#1662=ORIENTED_EDGE('',*,*,#1560,.F.);
#1663=PLANE('',#1664);
#1664=AXIS2_PLACEMENT_3D('',#635,#1658,#519);
#1665=ADVANCED_FACE('',(#1666),#1669,.F.);
#1666=FACE_BOUND('',#1667,.F.);
#1667=EDGE_LOOP('',(#1181,#1186,#1191,#1668));
#1668=ORIENTED_EDGE('',*,*,#1538,.F.);
#1669=PLANE('',#1670);
#1670=AXIS2_PLACEMENT_3D('',#614,#1658,#519);
#1671=ADVANCED_FACE('',(#1672),#1675,.F.);
#1672=FACE_BOUND('',#1673,.F.);
#1673=EDGE_LOOP('',(#1168,#1173,#1178,#1674));
#1674=ORIENTED_EDGE('',*,*,#1516,.F.);
#1675=PLANE('',#1676);
#1676=AXIS2_PLACEMENT_3D('',#593,#1658,#519);
#1677=ADVANCED_FACE('',(#1678),#1681,.F.);
#1678=FACE_BOUND('',#1679,.F.);
#1679=EDGE_LOOP('',(#1155,#1160,#1165,#1680));
#1680=ORIENTED_EDGE('',*,*,#1494,.F.);
#1681=PLANE('',#1682);
#1682=AXIS2_PLACEMENT_3D('',#572,#1658,#519);
#1683=ADVANCED_FACE('',(#1684),#1687,.F.);
#1684=FACE_BOUND('',#1685,.F.);
#1685=EDGE_LOOP('',(#1142,#1147,#1152,#1686));
#1686=ORIENTED_EDGE('',*,*,#1472,.F.);
#1687=PLANE('',#1688);
#1688=AXIS2_PLACEMENT_3D('',#551,#1658,#519);
#1689=ADVANCED_FACE('',(#1690),#1693,.F.);
#1690=FACE_BOUND('',#1691,.F.);
#1691=EDGE_LOOP('',(#1129,#1134,#1139,#1692));
#1692=ORIENTED_EDGE('',*,*,#1450,.F.);
#1693=PLANE('',#1694);
#1694=AXIS2_PLACEMENT_3D('',#530,#1658,#519);
#1695=ADVANCED_FACE('',(#1696),#1699,.F.);
#1696=FACE_BOUND('',#1697,.F.);
#1697=EDGE_LOOP('',(#1115,#1120,#1126,#1698));
#1698=ORIENTED_EDGE('',*,*,#1427,.F.);
#1699=PLANE('',#1700);
#1700=AXIS2_PLACEMENT_3D('',#502,#1658,#519);
#1701=( GEOMETRIC_REPRESENTATION_CONTEXT(3) GLOBAL_UNCERTAINTY_ASSIGNED_CONTEXT((#1705)) GLOBAL_UNIT_ASSIGNED_CONTEXT((#1702,#1703,#1704)) REPRESENTATION_CONTEXT('Context #1','3D Context with UNIT and UNCERTAINTY') );
#1702=( LENGTH_UNIT() NAMED_UNIT(*) SI_UNIT(.MILLI.,.METRE.) );
#1703=( NAMED_UNIT(*) PLANE_ANGLE_UNIT() SI_UNIT($,.RADIAN.) );
#1704=( NAMED_UNIT(*) SI_UNIT($,.STERADIAN.) SOLID_ANGLE_UNIT() );
#1705=UNCERTAINTY_MEASURE_WITH_UNIT(LENGTH_MEASURE(1.E-07),#1702,'distance_accuracy_value','confusion accuracy');
#1706=PRODUCT_RELATED_PRODUCT_CATEGORY('part',$,(#7));
#1707=MECHANICAL_DESIGN_GEOMETRIC_PRESENTATION_REPRESENTATION('',(#1708,#1718,#1719,#1720,#1721,#1730,#1731,#1732,#1733,#1734,#1735,#1736,#1737,#1738,#1739,#1748,#1749,#1750,#1751,#1752,#1753,#1754,#1755,#1756,#1757,#1758,#1759,#1760,#1761,#1762,#1763,#1764,#1765,#1766,#1767,#1768,#1769,#1770,#1771,#1772,#1773,#1774,#1775,#1776,#1777,#1778,#1779,#1780,#1781,#1782,#1783,#1784,#1785,#1786,#1787,#1788,#1789,#1790,#1791,#1792,#1793,#1794,#1795,#1796),#1701);
#1708=STYLED_ITEM('color',(#1709),#17);
#1709=PRESENTATION_STYLE_ASSIGNMENT((#1710,#1716));
#1710=SURFACE_STYLE_USAGE(.BOTH.,#1711);
#1711=SURFACE_SIDE_STYLE('',(#1712));
#1712=SURFACE_STYLE_FILL_AREA(#1713);
#1713=FILL_AREA_STYLE('',(#1714));
#1714=FILL_AREA_STYLE_COLOUR('',#1715);
#1715=COLOUR_RGB('',0.147999998088,0.145000001626,0.145000001626);
#1716=CURVE_STYLE('',#1717,POSITIVE_LENGTH_MEASURE(0.1),#1715);
#1717=DRAUGHTING_PRE_DEFINED_CURVE_FONT('continuous');
#1718=STYLED_ITEM('color',(#1709),#200);
#1719=STYLED_ITEM('color',(#1709),#228);
#1720=STYLED_ITEM('color',(#1709),#358);
#1721=STYLED_ITEM('color',(#1722),#927);
#1722=PRESENTATION_STYLE_ASSIGNMENT((#1723,#1729));
#1723=SURFACE_STYLE_USAGE(.BOTH.,#1724);
#1724=SURFACE_SIDE_STYLE('',(#1725));
#1725=SURFACE_STYLE_FILL_AREA(#1726);
#1726=FILL_AREA_STYLE('',(#1727));
#1727=FILL_AREA_STYLE_COLOUR('',#1728);
#1728=COLOUR_RGB('',0.823999987314,0.819999987296,0.781000009244);
#1729=CURVE_STYLE('',#1717,POSITIVE_LENGTH_MEASURE(0.1),#1728);
#1730=STYLED_ITEM('color',(#1722),#939);
#1731=STYLED_ITEM('color',(#1722),#950);
#1732=STYLED_ITEM('color',(#1722),#961);
#1733=STYLED_ITEM('color',(#1722),#972);
#1734=STYLED_ITEM('color',(#1722),#983);
#1735=STYLED_ITEM('color',(#1722),#994);
#1736=STYLED_ITEM('color',(#1722),#1005);
#1737=STYLED_ITEM('color',(#1709),#1016);
#1738=STYLED_ITEM('color',(#1709),#1111);
#1739=STYLED_ITEM('color',(#1740),#1223);
#1740=PRESENTATION_STYLE_ASSIGNMENT((#1741,#1747));
#1741=SURFACE_STYLE_USAGE(.BOTH.,#1742);
#1742=SURFACE_SIDE_STYLE('',(#1743));
#1743=SURFACE_STYLE_FILL_AREA(#1744);
#1744=FILL_AREA_STYLE('',(#1745));
#1745=FILL_AREA_STYLE_COLOUR('',#1746);
#1746=COLOUR_RGB('',0.690999998585,0.664000007176,0.597999987832);
#1747=CURVE_STYLE('',#1717,POSITIVE_LENGTH_MEASURE(0.1),#1746);
#1748=STYLED_ITEM('color',(#1722),#1229);
#1749=STYLED_ITEM('color',(#1722),#1237);
#1750=STYLED_ITEM('color',(#1722),#1245);
#1751=STYLED_ITEM('color',(#1722),#1253);
#1752=STYLED_ITEM('color',(#1722),#1261);
#1753=STYLED_ITEM('color',(#1722),#1269);
#1754=STYLED_ITEM('color',(#1722),#1277);
#1755=STYLED_ITEM('color',(#1722),#1288);
#1756=STYLED_ITEM('color',(#1722),#1301);
#1757=STYLED_ITEM('color',(#1722),#1311);
#1758=STYLED_ITEM('color',(#1722),#1323);
#1759=STYLED_ITEM('color',(#1722),#1333);
#1760=STYLED_ITEM('color',(#1722),#1345);
#1761=STYLED_ITEM('color',(#1722),#1355);
#1762=STYLED_ITEM('color',(#1722),#1367);
#1763=STYLED_ITEM('color',(#1722),#1377);
#1764=STYLED_ITEM('color',(#1722),#1389);
#1765=STYLED_ITEM('color',(#1722),#1399);
#1766=STYLED_ITEM('color',(#1722),#1411);
#1767=STYLED_ITEM('color',(#1722),#1421);
#1768=STYLED_ITEM('color',(#1722),#1434);
#1769=STYLED_ITEM('color',(#1722),#1444);
#1770=STYLED_ITEM('color',(#1722),#1456);
#1771=STYLED_ITEM('color',(#1722),#1466);
#1772=STYLED_ITEM('color',(#1722),#1478);
#1773=STYLED_ITEM('color',(#1722),#1488);
#1774=STYLED_ITEM('color',(#1722),#1500);
#1775=STYLED_ITEM('color',(#1722),#1510);
#1776=STYLED_ITEM('color',(#1722),#1522);
#1777=STYLED_ITEM('color',(#1722),#1532);
#1778=STYLED_ITEM('color',(#1722),#1544);
#1779=STYLED_ITEM('color',(#1722),#1554);
#1780=STYLED_ITEM('color',(#1722),#1566);
#1781=STYLED_ITEM('color',(#1722),#1576);
#1782=STYLED_ITEM('color',(#1722),#1588);
#1783=STYLED_ITEM('color',(#1722),#1597);
#1784=STYLED_ITEM('color',(#1722),#1607);
#1785=STYLED_ITEM('color',(#1722),#1616);
#1786=STYLED_ITEM('color',(#1722),#1625);
#1787=STYLED_ITEM('color',(#1722),#1634);
#1788=STYLED_ITEM('color',(#1722),#1643);
#1789=STYLED_ITEM('color',(#1722),#1652);
#1790=STYLED_ITEM('color',(#1722),#1659);
#1791=STYLED_ITEM('color',(#1722),#1665);
#1792=STYLED_ITEM('color',(#1722),#1671);
#1793=STYLED_ITEM('color',(#1722),#1677);
#1794=STYLED_ITEM('color',(#1722),#1683);
#1795=STYLED_ITEM('color',(#1722),#1689);
#1796=STYLED_ITEM('color',(#1722),#1695);
ENDSEC;
END-ISO-10303-21;
